<?xml version="1.0" standalone="no"?>
<!DOCTYPE svg PUBLIC "-//W3C//DTD SVG 20010904//EN"
 "http://www.w3.org/TR/2001/REC-SVG-20010904/DTD/svg10.dtd">
<svg version="1.0" xmlns="http://www.w3.org/2000/svg"
 width="1801.000000pt" height="1801.000000pt" viewBox="0 0 1801.000000 1801.000000"
 preserveAspectRatio="xMidYMid meet">
<metadata>
Created by potrace 1.14, written by Peter Selinger 2001-2017
</metadata>
<g transform="translate(0.000000,1801.000000) scale(0.100000,-0.100000)"
fill="#000000" stroke="none">
<path d="M13995 13833 c-11 -3 -32 -14 -47 -25 -15 -10 -55 -28 -88 -39 -34
-11 -112 -42 -175 -69 -82 -36 -127 -50 -160 -50 -53 0 -99 -21 -116 -52 -7
-13 -18 -54 -25 -93 -17 -88 -48 -121 -124 -131 -69 -9 -82 -24 -74 -83 8 -59
-8 -92 -171 -356 -131 -212 -260 -440 -437 -776 -145 -277 -279 -564 -464
-999 -58 -135 -120 -279 -139 -320 -50 -110 -81 -197 -116 -323 -16 -62 -54
-184 -84 -272 -58 -171 -255 -916 -305 -1153 -69 -325 -125 -767 -145 -1137
-15 -273 44 -703 136 -991 39 -123 64 -173 126 -249 102 -127 162 -213 208
-300 58 -110 168 -266 227 -321 60 -56 117 -95 308 -211 91 -55 214 -132 274
-171 117 -77 158 -88 203 -57 15 10 24 12 28 4 4 -5 25 -24 47 -40 47 -34 96
-38 174 -14 27 8 81 15 121 15 40 0 84 5 98 12 27 12 55 54 55 82 0 13 7 12
40 -5 47 -25 92 -22 200 11 36 11 78 20 95 20 22 0 43 13 85 54 44 44 76 63
161 99 255 108 400 195 555 332 161 142 368 351 405 410 55 89 137 203 224
310 128 159 230 314 288 437 29 63 82 163 117 223 149 257 209 371 220 416 17
70 9 76 -29 22 -236 -334 -313 -446 -323 -470 -17 -39 -48 -73 -69 -73 -11 0
-29 -26 -54 -77 -48 -99 -66 -118 -127 -139 -50 -16 -83 -50 -73 -76 3 -8 -1
-21 -9 -28 -19 -15 -27 0 -23 45 l2 30 -74 7 c-41 4 -76 10 -79 12 -2 3 2 22
8 42 12 36 11 39 -11 53 -68 46 -68 45 -24 88 23 21 48 49 58 63 l17 25 24
-30 c29 -33 26 -35 85 54 l43 63 -27 28 c-34 35 -48 86 -35 130 13 44 53 100
89 125 l29 19 -20 40 c-20 39 -20 40 -2 53 11 8 29 12 42 10 15 -3 28 3 37 17
20 27 19 36 -2 36 -10 1 -30 6 -46 13 l-27 12 43 47 c36 38 56 76 106 203 76
192 89 240 75 263 -6 9 -16 17 -23 17 -6 0 -38 -46 -70 -103 l-58 -103 -17 26
c-9 14 -20 25 -25 25 -4 0 -31 -37 -59 -83 -50 -82 -82 -121 -82 -99 0 19 95
214 138 284 64 103 103 187 177 373 37 94 98 235 135 315 71 151 92 231 60
237 -10 2 -24 -20 -44 -74 -16 -43 -78 -184 -137 -313 -58 -129 -112 -253
-119 -275 -15 -48 -97 -199 -231 -425 -53 -91 -135 -232 -182 -315 -198 -351
-335 -555 -502 -745 -75 -85 -168 -196 -206 -247 -117 -153 -236 -258 -549
-483 -174 -124 -285 -175 -457 -205 -48 -9 -122 -22 -163 -30 -41 -8 -131 -22
-199 -31 -135 -18 -205 -11 -246 24 -70 60 -165 232 -200 362 -9 36 -26 82
-36 102 -11 21 -19 47 -19 59 0 12 -7 27 -16 34 -30 22 -56 337 -35 430 9 41
8 73 -4 160 -20 141 -20 294 1 464 25 217 40 279 84 366 34 69 45 107 76 275
27 149 51 241 101 390 45 133 69 225 78 290 10 73 31 146 93 317 69 189 80
226 72 253 -11 39 -2 64 45 120 21 25 55 82 76 126 38 79 38 83 24 117 -14 35
-14 38 24 110 22 40 46 99 55 131 8 32 26 70 39 85 42 45 77 103 77 129 0 13
13 39 29 57 25 29 51 104 51 148 0 16 89 242 133 338 38 84 126 238 197 344
26 39 83 135 127 215 105 188 109 196 133 255 17 40 29 54 63 70 23 11 47 31
53 45 7 14 22 48 34 75 28 64 129 216 216 325 38 47 144 161 236 254 l167 168
-14 35 -14 34 26 -21 c37 -29 56 -26 150 27 93 52 99 65 57 120 -14 18 -23 37
-20 42 4 5 25 16 49 24 l44 15 -1 -41 -1 -40 130 -52 c206 -82 266 -116 327
-185 29 -34 78 -77 109 -96 59 -36 81 -60 143 -159 20 -33 52 -78 70 -101 18
-22 40 -66 50 -98 18 -55 20 -58 47 -54 27 4 30 1 40 -36 6 -23 16 -47 21 -53
14 -17 58 -16 81 2 17 12 15 16 -36 48 -30 20 -58 40 -61 45 -3 6 10 16 29 22
46 15 45 40 -3 68 -35 19 -37 24 -34 60 4 37 1 41 -60 89 -35 28 -86 77 -113
109 -90 109 -130 146 -188 175 -32 17 -84 54 -116 83 -75 69 -87 75 -163 81
-76 6 -158 44 -193 91 -14 18 -56 53 -94 78 -74 50 -82 63 -67 113 34 115
-139 255 -436 354 -144 48 -162 52 -203 42z m-1269 -2490 c-3 -10 -8 -30 -11
-45 -4 -14 -15 -34 -24 -43 -16 -13 -20 -14 -30 -1 -10 11 -10 20 0 38 26 51
77 90 65 51z m-66 -200 c0 -29 -63 -103 -87 -103 -16 0 -16 -4 3 61 17 58 27
69 62 69 17 0 22 -6 22 -27z m-134 -265 c-36 -137 -85 -265 -113 -299 -33 -38
-50 -84 -58 -154 -4 -33 -18 -89 -31 -124 -28 -75 -29 -90 -8 -106 13 -9 15
-21 9 -63 -6 -48 -9 -52 -34 -52 -41 0 -68 -25 -102 -93 -17 -34 -38 -70 -46
-79 -13 -15 -13 -20 4 -42 11 -15 33 -28 56 -33 l38 -8 -52 -40 c-59 -45 -109
-108 -109 -138 0 -12 10 -31 22 -44 l21 -23 -26 0 c-42 0 -64 -31 -72 -97 -13
-115 -47 -258 -81 -346 -34 -89 -43 -150 -24 -162 19 -12 10 -34 -33 -77 -41
-40 -45 -50 -64 -143 -12 -55 -29 -151 -39 -214 l-18 -113 27 -20 c15 -11 27
-24 27 -28 0 -5 -18 -29 -40 -54 -39 -46 -60 -97 -60 -148 0 -15 -11 -73 -25
-130 -16 -68 -25 -132 -25 -187 l0 -83 27 7 c32 8 33 9 -31 -40 l-49 -37 6
173 c4 96 14 226 22 289 14 101 75 426 91 488 5 18 2 22 -18 22 -24 0 -27 -9
-73 -180 -27 -99 -53 -180 -58 -180 -13 0 -2 172 19 281 13 71 115 484 130
529 4 13 6 13 14 0 16 -26 11 -101 -15 -208 -29 -120 -31 -164 -9 -183 13 -10
17 -10 25 2 24 36 30 54 48 141 31 154 34 188 16 237 -24 69 -45 168 -45 214
0 66 34 177 69 229 17 25 48 99 70 165 37 116 72 196 89 207 5 3 17 -12 27
-34 10 -22 19 -40 21 -40 42 0 48 74 9 110 -14 13 -25 33 -25 46 0 13 30 56
75 107 41 48 75 89 75 92 0 3 -13 5 -29 5 -16 0 -35 7 -42 16 -20 24 11 43 60
37 32 -4 39 -2 43 15 5 17 -2 24 -38 39 l-44 18 0 79 c0 58 3 77 13 73 35 -13
57 -18 57 -12 0 3 -18 40 -40 82 -38 72 -40 77 -24 94 27 30 34 23 34 -35 0
-65 21 -86 82 -86 41 0 45 5 23 34 -26 34 -18 53 30 73 52 21 53 37 4 41 -45
4 -51 12 -38 50 14 40 41 57 68 42 11 -5 24 -10 29 -10 5 0 44 52 86 116 96
144 111 142 72 -8z m-186 -1402 c0 -13 -9 -35 -20 -49 -11 -14 -23 -39 -26
-56 l-6 -30 -36 15 c-20 8 -38 16 -39 18 -2 2 15 43 39 90 l43 87 23 -26 c12
-14 22 -37 22 -49z m-91 -215 c36 -23 -63 -311 -103 -298 -17 6 -7 54 20 94
31 45 31 91 0 136 l-25 36 32 20 c35 23 54 25 76 12z m-92 -413 c7 -60 -28
-150 -65 -168 -15 -8 -31 -16 -36 -19 -6 -2 0 11 12 31 26 41 27 56 8 77 -12
14 -10 24 22 78 21 34 41 58 46 53 4 -4 10 -28 13 -52z m-121 -424 c-6 -16
-36 -8 -36 10 0 6 8 23 18 36 l17 25 3 -28 c2 -16 1 -35 -2 -43z m19 -55 c10
-15 -23 -97 -42 -108 -21 -11 -53 -2 -53 16 0 15 69 102 82 103 4 0 10 -5 13
-11z m-465 -160 c0 -49 -21 -199 -31 -226 -5 -13 -15 -23 -24 -23 -23 0 -22
265 1 291 25 27 54 5 54 -42z m425 -192 c31 -62 32 -100 4 -128 -21 -21 -21
-23 -5 -49 24 -42 20 -57 -32 -113 -27 -29 -59 -67 -72 -85 -19 -28 -25 -31
-35 -20 -21 21 -34 84 -25 122 9 40 45 102 63 109 9 3 9 7 0 17 -8 9 -4 27 18
77 16 36 29 68 29 73 0 4 -19 11 -41 16 l-42 9 44 22 c51 26 57 23 94 -50z
m2792 -74 c-9 -15 -31 -46 -51 -68 -34 -38 -35 -39 -35 -15 -1 35 33 105 66
137 l28 28 3 -27 c2 -15 -3 -39 -11 -55z m-3248 -138 c2 -81 14 -145 27 -145
7 0 25 -5 39 -12 23 -10 25 -16 25 -75 0 -34 -4 -63 -8 -63 -17 0 -40 36 -52
78 -9 36 -16 44 -42 49 l-31 6 7 111 c4 60 10 114 13 120 9 14 21 -23 22 -69z
m451 -507 c0 -60 0 -61 -20 -43 -22 20 -25 41 -10 79 17 45 30 29 30 -36z
m-336 -23 l15 -46 -26 -10 c-14 -5 -30 -12 -35 -15 -5 -4 -7 10 -3 33 16 100
25 107 49 38z m47 -75 c15 -9 17 -15 9 -30 -12 -23 -47 -43 -60 -35 -5 3 -2
20 7 40 19 39 17 39 44 25z m277 -32 c15 -15 15 -45 0 -54 -6 -4 -21 5 -34 22
-17 21 -20 30 -11 36 17 11 31 10 45 -4z"/>
<path d="M11991 9793 c-5 -10 -18 -52 -30 -93 -12 -41 -34 -98 -49 -127 l-27
-52 23 -47 c13 -25 25 -44 28 -42 4 5 93 355 94 371 0 14 -30 7 -39 -10z"/>
<path d="M14977 13313 c-18 -17 -4 -42 31 -56 20 -9 78 -34 127 -55 125 -55
132 -56 137 -34 5 16 -18 30 -138 85 -155 73 -148 70 -157 60z"/>
<path d="M2710 12901 c-30 -10 -71 -26 -90 -36 -67 -35 -445 -273 -490 -309
-98 -79 -232 -177 -381 -279 -86 -58 -163 -117 -171 -129 -9 -13 -100 -107
-204 -209 -376 -371 -440 -436 -506 -512 -44 -50 -68 -86 -68 -102 0 -27 -95
-152 -176 -231 -45 -44 -51 -54 -40 -69 11 -15 18 -12 75 30 35 25 65 45 66
43 15 -14 -240 -308 -266 -308 -5 0 -9 -6 -9 -13 0 -7 -13 -31 -29 -53 -32
-43 -58 -123 -96 -292 -27 -120 -25 -144 15 -157 15 -5 20 -15 20 -41 0 -44
33 -109 66 -131 26 -17 26 -16 62 28 20 24 60 67 89 94 85 81 123 133 123 167
0 29 2 30 33 24 103 -21 101 -21 132 24 17 24 60 61 104 90 42 27 84 55 95 62
26 19 14 50 -27 71 l-32 16 41 -5 c63 -9 106 17 186 112 79 92 134 136 194
154 30 9 77 46 177 140 156 146 407 360 517 442 89 66 223 144 264 154 l29 7
-6 -77 c-4 -42 -27 -169 -51 -284 -24 -114 -64 -315 -90 -447 -25 -132 -97
-503 -160 -825 -63 -322 -127 -655 -141 -740 -14 -85 -37 -207 -50 -270 -13
-63 -44 -239 -69 -390 -26 -151 -55 -304 -66 -340 -11 -36 -48 -207 -81 -380
-33 -173 -69 -359 -80 -414 -16 -76 -19 -104 -10 -122 6 -13 14 -24 19 -24 20
0 52 82 67 170 18 105 101 526 193 975 33 160 65 328 72 375 6 47 22 129 35
183 21 85 38 185 75 436 6 40 19 78 35 104 24 35 26 46 20 92 -4 36 -1 64 9
91 8 21 38 152 66 289 29 138 68 296 86 352 26 79 34 118 34 175 0 79 10 97
66 126 18 10 22 23 26 89 7 114 62 213 120 213 30 0 30 -19 0 -68 -43 -71 -52
-106 -52 -207 0 -70 5 -103 19 -136 l20 -45 -24 -119 c-13 -66 -35 -167 -48
-225 -14 -58 -28 -130 -32 -160 -9 -73 -28 -175 -64 -345 -16 -77 -39 -205
-50 -285 -11 -80 -46 -269 -77 -420 -64 -307 -73 -372 -52 -397 10 -13 10 -17
0 -21 -7 -2 -20 -18 -28 -34 -19 -37 -42 -185 -36 -228 4 -26 9 -30 34 -30 16
0 42 10 58 21 26 19 32 20 59 9 37 -15 33 -24 -21 -51 l-40 -20 23 -25 24 -25
-22 -40 -22 -39 39 -20 c52 -26 59 -40 20 -40 -48 0 -77 -36 -85 -106 -8 -74
-20 -106 -50 -134 -17 -16 -28 -19 -40 -13 -14 8 -14 12 5 35 11 15 17 33 14
41 -5 13 -11 14 -42 3 -31 -11 -38 -18 -40 -44 -5 -46 12 -68 62 -81 52 -13
61 -23 46 -52 -10 -17 -8 -25 10 -44 l22 -24 -25 -23 c-34 -30 -77 -147 -77
-208 0 -40 -5 -54 -34 -86 -33 -37 -34 -37 -45 -16 -10 19 -8 27 9 53 l22 30
-27 34 c-14 19 -30 35 -35 35 -9 0 -20 -47 -39 -160 -14 -83 -28 -144 -53
-248 -17 -69 -18 -87 -8 -112 12 -29 13 -29 36 -12 16 12 24 27 24 52 1 19 9
66 19 104 l18 69 36 -54 36 -54 -19 -30 c-57 -92 -59 -102 -30 -177 11 -28 17
-54 15 -56 -3 -3 -19 -1 -37 4 -25 7 -36 18 -44 43 -18 57 -53 60 -54 4 0 -23
39 -112 60 -138 7 -8 21 -15 31 -15 11 0 19 -4 19 -10 0 -12 -27 -26 -68 -33
-35 -7 -111 -55 -112 -71 0 -4 28 -40 62 -79 l63 -70 -61 5 -61 6 -12 -83 -13
-83 39 -35 c31 -29 36 -38 25 -49 -10 -10 -17 -10 -32 0 -28 17 -39 15 -33 -6
2 -10 -3 -47 -12 -81 -13 -49 -14 -70 -5 -96 10 -32 8 -38 -44 -118 -56 -88
-58 -107 -10 -107 13 0 30 -7 39 -16 14 -15 14 -18 0 -41 -9 -13 -19 -46 -22
-74 -6 -49 -5 -50 25 -61 l32 -12 -36 -37 -35 -36 25 -17 c33 -21 33 -50 1
-92 l-26 -34 22 -29 c15 -21 19 -34 12 -47 -11 -24 -9 -322 3 -334 5 -5 21
-12 37 -15 l27 -7 0 116 c0 74 4 116 11 116 5 0 28 -10 49 -22 l39 -23 30 23
c18 13 45 22 66 22 28 0 37 5 45 24 13 35 32 147 26 153 -5 6 -148 -14 -173
-24 -7 -3 -13 -15 -13 -27 0 -11 -7 -30 -15 -40 -39 -51 -48 50 -19 199 20 99
28 109 60 72 l24 -29 -21 -37 c-12 -21 -19 -50 -17 -67 3 -29 3 -29 63 -26
106 6 143 52 156 195 13 134 17 150 43 178 31 33 43 74 57 189 6 52 19 120 29
150 13 38 15 60 9 72 -12 23 -10 23 -73 -13 l-55 -30 -17 55 c-10 31 -21 56
-25 56 -4 0 -28 -21 -53 -47 l-44 -48 -7 35 c-4 23 1 57 15 99 24 75 16 117
-27 151 -18 14 -21 20 -10 20 24 0 63 54 82 115 19 60 31 61 60 5 14 -28 12
-39 -24 -96 -10 -15 -11 -42 -5 -114 l9 -94 45 -27 c29 -18 60 -28 87 -28 58
-1 73 23 78 125 2 44 34 223 70 399 36 176 70 356 75 400 6 60 13 83 28 95 13
11 27 47 41 107 11 50 21 95 21 101 0 7 -16 20 -35 29 l-34 18 65 35 c35 19
63 39 61 44 -2 5 -17 14 -35 20 l-31 11 40 95 c46 110 82 238 77 277 -2 17 10
55 29 93 38 77 65 219 62 326 -2 67 0 75 22 93 20 16 25 31 29 90 l5 71 -26 0
c-29 0 -39 -15 -39 -58 0 -25 -4 -23 -60 33 -33 33 -60 62 -60 65 0 4 43 24
95 45 53 21 94 41 92 44 -30 58 -31 61 -11 82 19 22 19 23 -30 50 -15 9 -17
19 -13 55 7 63 29 93 77 100 37 6 39 8 33 33 -3 14 -7 28 -9 30 -3 3 5 15 17
27 26 28 89 206 88 248 0 17 -4 40 -8 50 -6 15 -1 26 18 41 20 18 26 35 32 89
5 48 13 74 28 90 l21 23 -21 27 -21 27 21 23 c21 22 21 24 5 94 -18 82 -14 93
43 117 41 17 43 44 7 96 -28 41 -26 55 13 70 31 11 55 67 92 206 24 94 31 110
55 121 31 16 46 48 46 100 0 20 14 82 30 137 17 55 46 150 65 210 42 134 85
358 85 438 0 52 3 62 30 89 17 16 30 39 30 49 0 36 61 303 74 324 20 31 76
212 76 243 0 16 -7 50 -16 76 -13 38 -14 55 -5 91 6 24 11 57 11 72 0 52 -30
147 -60 191 -17 23 -30 53 -30 67 0 34 -44 64 -335 230 -27 16 -78 50 -112 76
-35 27 -80 53 -100 58 -61 17 -220 12 -283 -8z m-1356 -1320 c8 -12 -19 -21
-65 -21 -28 0 -39 4 -39 15 0 11 12 15 49 15 28 0 52 -4 55 -9z m-204 -210 c0
-13 -60 -91 -144 -186 -250 -286 -288 -325 -312 -325 -22 0 -20 5 34 90 71
111 175 231 289 336 95 86 133 111 133 85z m1413 -48 c9 -9 -33 -54 -44 -47
-5 3 -1 16 8 29 19 26 26 29 36 18z m-1917 -505 c-8 -38 -42 -78 -68 -78 -17
0 -17 2 -1 38 22 48 42 72 61 72 11 0 13 -8 8 -32z m1812 -1411 c2 -10 -6 -51
-19 -92 -21 -72 -41 -97 -62 -76 -15 15 19 163 40 179 21 15 37 11 41 -11z
m212 -171 c0 -6 -5 -18 -10 -26 -8 -13 -11 -13 -26 1 -13 14 -14 21 -4 38 9
18 14 20 26 10 8 -6 14 -17 14 -23z m-233 -99 c-4 -15 -54 -33 -63 -24 -4 3 1
18 10 32 14 21 20 24 37 14 11 -5 18 -16 16 -22z m-66 -157 c-4 -61 -16 -87
-41 -95 -36 -11 -45 8 -30 62 19 71 28 85 53 81 20 -3 22 -8 18 -48z m32 -172
c-8 -74 -12 -86 -43 -115 -22 -21 -31 -42 -38 -86 -10 -67 -33 -97 -74 -97
-38 0 -46 25 -18 55 12 13 20 30 17 37 -2 7 3 21 11 31 13 15 14 30 6 96 l-9
79 37 -19 c20 -10 41 -19 46 -19 5 0 14 18 21 40 8 28 17 40 30 40 16 0 18 -6
14 -42z m247 -18 c0 -16 -47 -60 -64 -60 -20 0 -48 29 -40 42 15 23 104 39
104 18z m-64 -325 c57 -33 73 -61 41 -71 -12 -4 -31 -8 -42 -9 -11 -2 -34 -7
-51 -13 -46 -15 -58 -3 -49 49 13 76 32 85 101 44z m34 -240 c6 -8 9 -23 5
-34 -11 -36 -126 -66 -164 -42 -15 10 -7 31 12 31 7 0 32 14 57 30 51 33 72
36 90 15z m-120 -135 c13 -9 10 -14 -15 -35 -24 -20 -31 -22 -38 -10 -9 17 8
55 26 55 7 0 19 -5 27 -10z m31 -120 c14 0 19 -7 19 -25 0 -34 -36 -69 -63
-61 -12 3 -48 9 -79 13 -70 7 -77 28 -20 61 29 18 47 21 81 17 24 -3 52 -5 62
-5z m-142 -176 c5 -5 -40 -54 -48 -54 -3 0 -12 4 -20 9 -22 14 17 62 44 54 11
-3 22 -7 24 -9z m11 -145 c0 -6 -20 -43 -44 -82 -24 -40 -53 -91 -65 -114 -22
-45 -55 -71 -66 -53 -13 21 73 265 102 287 13 10 21 8 44 -8 16 -11 29 -25 29
-30z m1 -297 c8 -24 8 -37 1 -44 -9 -9 -157 -37 -199 -38 -16 0 -27 40 -14 53
6 6 29 10 52 8 52 -3 84 18 99 65 l13 37 18 -24 c10 -13 24 -39 30 -57z m-51
-189 c0 -19 -72 -16 -115 4 -35 17 -44 40 -24 60 14 14 139 -44 139 -64z
m-193 -294 c8 -20 9 -39 2 -55 -15 -40 -11 -76 12 -100 18 -20 19 -25 8 -41
-11 -13 -27 -18 -67 -18 -70 0 -79 15 -47 83 13 28 23 64 23 80 -1 31 28 82
46 82 6 0 17 -14 23 -31z m-267 -510 c0 -8 -31 -21 -36 -16 -2 2 -7 19 -10 38
l-7 34 27 -24 c14 -14 26 -28 26 -32z m-26 -336 c-18 -29 -32 -25 -36 12 -5
45 1 51 26 25 16 -16 18 -24 10 -37z m206 -9 c7 -7 -22 -24 -41 -24 -9 0 -29
10 -45 22 -16 12 -31 23 -33 24 -1 2 0 7 3 13 6 9 100 -20 116 -35z m-82 -116
c20 -20 14 -80 -12 -113 l-23 -29 -17 31 c-21 41 -20 49 5 89 23 37 29 40 47
22z"/>
<path d="M15897 12687 c-15 -11 -10 -20 50 -89 52 -61 69 -75 80 -67 21 18 15
31 -51 101 -54 59 -64 66 -79 55z"/>
<path d="M7848 12535 c-2 -2 -37 -6 -78 -10 -41 -3 -86 -7 -100 -10 -35 -7
-68 -13 -120 -20 -50 -8 -75 -13 -75 -15 0 -2 -18 -6 -64 -15 -19 -3 -38 -8
-41 -10 -4 -3 -24 -7 -44 -11 -20 -3 -60 -13 -89 -23 -29 -10 -55 -19 -59 -20
-17 -3 -30 -7 -48 -14 -8 -3 -44 -15 -80 -28 -36 -12 -78 -27 -95 -34 -16 -7
-59 -25 -95 -40 -97 -40 -314 -150 -400 -203 -19 -12 -42 -25 -50 -29 -8 -4
-36 -22 -62 -40 -26 -18 -50 -33 -53 -33 -12 0 -271 -193 -365 -271 -118 -99
-330 -304 -425 -411 -111 -126 -153 -176 -235 -283 -179 -234 -344 -499 -467
-752 -38 -76 -72 -141 -78 -145 -5 -4 -6 -8 -2 -8 4 0 2 -10 -5 -22 -7 -13
-13 -25 -13 -28 -1 -3 -7 -16 -12 -30 -58 -135 -175 -458 -188 -520 -2 -8 -8
-27 -13 -41 -6 -15 -8 -30 -5 -33 4 -3 1 -6 -6 -6 -7 0 -10 -4 -7 -8 3 -5 -1
-29 -9 -54 -7 -26 -16 -59 -19 -75 -5 -30 -8 -44 -26 -113 -6 -25 -12 -54 -14
-65 -2 -11 -6 -34 -10 -50 -4 -17 -9 -46 -11 -65 -4 -35 -8 -57 -18 -115 -44
-247 -54 -740 -21 -1045 9 -85 12 -105 14 -105 1 0 4 -22 6 -50 3 -27 9 -63
14 -80 4 -16 8 -37 8 -45 0 -23 26 -134 32 -140 3 -3 5 -12 5 -20 0 -8 12 -60
28 -115 16 -55 30 -107 31 -115 2 -8 8 -28 15 -43 6 -16 11 -35 11 -43 0 -8 4
-14 10 -14 5 0 9 -3 9 -7 -1 -5 -1 -10 1 -13 1 -3 4 -16 6 -30 3 -14 9 -27 14
-28 6 -2 8 -8 5 -12 -3 -5 -1 -17 4 -27 18 -34 45 -98 47 -112 2 -7 7 -18 13
-24 6 -6 11 -19 11 -29 0 -10 5 -18 12 -18 6 0 8 -3 5 -6 -4 -4 3 -20 14 -35
11 -16 18 -29 15 -29 -4 0 5 -18 19 -40 14 -22 22 -40 18 -40 -5 0 -3 -4 2 -8
6 -4 17 -20 25 -37 8 -16 17 -32 20 -35 10 -10 41 -65 47 -82 3 -10 9 -18 13
-18 4 0 13 -14 20 -30 7 -16 16 -30 21 -30 5 0 9 -7 9 -15 0 -8 5 -15 10 -15
6 0 10 -7 10 -15 0 -8 4 -15 8 -15 4 0 15 -12 24 -27 9 -16 25 -38 35 -50 10
-12 25 -31 33 -41 39 -51 98 -120 128 -148 17 -18 32 -37 32 -43 0 -6 7 -11
17 -11 9 0 13 -3 10 -7 -4 -3 5 -15 20 -25 16 -10 24 -18 20 -18 -5 0 -2 -7 7
-15 8 -8 17 -15 19 -15 3 0 27 -21 55 -47 62 -60 101 -93 108 -93 2 0 17 -12
32 -26 15 -14 39 -33 55 -42 15 -9 27 -20 27 -24 0 -4 7 -8 15 -8 8 0 15 -5
15 -12 0 -6 3 -9 6 -5 4 3 12 1 20 -6 33 -29 44 -37 54 -37 5 0 10 -4 10 -8 0
-5 16 -14 35 -22 19 -8 35 -17 35 -21 0 -4 11 -10 25 -13 16 -4 23 -11 19 -18
-4 -6 -3 -8 4 -4 6 3 13 2 17 -4 4 -6 11 -8 16 -5 5 4 9 1 9 -6 0 -7 3 -9 6
-6 4 4 19 -2 33 -12 31 -21 116 -61 131 -61 5 0 10 -4 10 -8 0 -5 7 -9 15 -9
8 0 31 -7 52 -16 58 -26 96 -40 116 -44 10 -1 30 -9 45 -17 15 -7 33 -11 40
-9 6 3 12 1 12 -4 0 -5 10 -10 23 -11 28 -3 48 -7 67 -15 8 -4 26 -9 40 -11
14 -3 36 -8 50 -11 32 -8 81 -17 100 -17 8 -1 18 -6 22 -12 6 -8 8 -8 8 1 0 6
9 9 20 6 11 -3 20 -10 20 -15 0 -6 7 -5 16 3 9 7 18 9 22 3 7 -9 38 -12 154
-17 32 -1 58 -6 58 -10 0 -4 8 -3 19 2 10 6 21 8 24 5 10 -10 57 -11 63 -2 3
5 11 4 19 -2 8 -7 21 -7 39 0 14 5 26 6 26 2 0 -4 20 -7 44 -7 24 0 42 3 41 6
-2 3 21 5 51 4 30 0 60 3 67 7 6 4 17 2 24 -4 9 -7 13 -7 13 0 0 5 14 9 30 8
17 -1 30 1 30 5 0 4 8 6 18 4 9 -1 25 2 36 7 13 7 16 7 12 -1 -4 -6 -2 -11 3
-11 6 0 11 4 11 10 0 5 14 7 30 5 17 -2 30 0 30 5 0 5 9 7 20 5 11 -2 22 0 25
5 3 5 13 6 22 3 12 -5 14 -3 8 8 -6 11 -5 12 5 2 8 -7 19 -9 29 -4 21 11 92
25 110 22 7 -1 10 2 6 8 -3 7 0 8 9 5 9 -3 16 -2 16 4 0 5 14 8 30 7 17 -1 28
0 25 3 -5 5 19 13 105 36 8 3 16 5 18 6 1 2 7 4 12 5 6 1 12 4 15 5 3 1 10 4
15 5 6 1 12 4 15 5 3 1 8 3 13 4 4 1 13 5 20 9 6 5 12 5 12 0 0 -4 4 -2 9 6 9
14 15 16 69 24 12 2 28 9 34 15 7 7 20 12 30 12 10 0 18 5 18 11 0 5 5 7 10 4
6 -3 10 -2 10 2 0 5 10 9 22 10 11 1 24 6 27 11 7 10 42 23 53 19 4 -1 14 7
23 18 9 11 13 13 9 5 -6 -12 -5 -13 7 -3 27 22 129 74 129 66 0 -4 4 -3 8 3 6
10 37 29 131 80 19 11 44 27 55 37 11 9 23 17 28 17 10 0 101 62 110 75 4 6 8
7 8 3 0 -4 8 -1 18 7 39 32 198 148 209 152 7 3 10 9 7 14 -3 5 0 9 6 9 6 0
25 13 43 29 17 16 36 31 40 33 26 9 361 337 433 424 23 27 52 60 65 74 13 14
40 46 59 70 19 25 38 47 42 48 5 2 8 8 8 13 0 5 13 24 29 42 40 43 100 128
107 150 4 9 9 17 13 17 11 0 177 258 225 350 16 30 32 57 36 60 6 5 175 340
175 349 1 3 11 29 24 56 86 189 225 601 257 764 3 13 12 54 20 90 8 36 17 80
20 96 3 17 8 41 10 55 7 34 14 78 19 120 2 19 4 35 5 35 1 0 3 14 5 30 2 17 7
50 10 75 4 25 8 70 11 100 3 30 7 80 10 110 3 30 5 61 5 68 -1 6 -1 20 -1 30
4 174 4 422 0 422 -3 0 -5 19 -6 43 0 39 -6 104 -20 222 -6 57 -34 227 -49
298 -2 12 -11 51 -20 87 -9 36 -19 76 -21 89 -3 13 -9 32 -15 43 -5 10 -8 18
-5 18 3 0 -6 32 -19 70 -13 39 -21 70 -18 70 3 0 1 6 -4 13 -6 6 -20 39 -31
72 -58 166 -193 447 -263 547 -11 14 -19 29 -19 32 0 10 -153 227 -182 257 -7
8 -33 39 -58 69 -48 60 -270 284 -270 273 0 -3 -8 3 -17 14 -20 22 -200 163
-208 163 -9 0 -69 44 -73 53 -2 4 -8 7 -14 7 -5 0 -22 8 -36 19 -37 25 -224
123 -297 154 -71 30 -195 79 -210 82 -5 1 -30 8 -55 15 -25 8 -47 14 -50 15
-3 0 -14 4 -25 8 -11 3 -31 8 -45 11 -14 3 -54 12 -90 19 -70 16 -175 33 -255
43 -56 7 -491 14 -497 9z m99 -415 c15 -50 47 -79 90 -81 67 -2 114 26 138 84
l16 39 77 -7 c79 -7 115 -12 120 -15 1 -2 16 -4 32 -5 17 -1 31 -4 33 -5 1 -1
29 -7 62 -14 l59 -11 2 -48 c3 -72 38 -115 102 -121 35 -3 98 28 113 57 17 32
30 37 59 22 14 -7 43 -21 65 -30 62 -26 149 -68 155 -75 3 -3 23 -14 45 -25
29 -15 39 -26 37 -40 -15 -89 2 -146 50 -171 42 -22 81 -17 129 16 34 23 46
27 54 17 6 -6 27 -25 47 -40 21 -15 79 -67 129 -116 l92 -87 -20 -55 c-23 -65
-22 -86 6 -132 21 -35 69 -60 101 -53 46 9 70 19 70 29 0 5 9 2 20 -8 11 -10
20 -22 20 -27 0 -8 9 -20 38 -53 6 -7 12 -17 12 -20 0 -4 8 -19 19 -33 28 -40
70 -113 84 -144 6 -16 15 -28 20 -28 4 0 6 -4 2 -9 -3 -5 -1 -13 5 -16 7 -4
-1 -20 -19 -40 -90 -103 -5 -270 115 -225 19 7 24 6 24 -5 0 -8 5 -15 10 -15
6 0 9 -3 8 -7 -1 -5 12 -51 29 -103 29 -87 53 -170 57 -195 1 -5 5 -16 10 -23
4 -7 5 -16 2 -19 -3 -3 -1 -14 4 -24 8 -13 6 -21 -6 -31 -44 -36 -66 -65 -78
-107 -12 -40 -11 -52 3 -91 19 -52 70 -92 108 -86 13 3 26 0 28 -7 14 -39 24
-171 29 -369 l2 -96 -36 -15 c-20 -8 -50 -31 -66 -52 -25 -33 -29 -47 -28
-100 0 -75 20 -110 75 -134 38 -16 38 -17 34 -61 -9 -77 -24 -189 -30 -210 -2
-8 -7 -35 -10 -60 -4 -24 -9 -48 -11 -51 -2 -4 -6 -25 -9 -47 -8 -67 -19 -85
-51 -88 -52 -5 -62 -10 -93 -44 -35 -40 -52 -100 -45 -150 8 -46 20 -70 54
-101 l28 -25 -29 -85 c-16 -46 -33 -92 -39 -101 -5 -10 -10 -23 -10 -29 0 -6
-6 -25 -14 -42 -75 -166 -90 -200 -88 -209 1 -3 -5 -12 -13 -18 -8 -7 -15 -8
-15 -3 0 5 -19 10 -41 12 -46 2 -119 -37 -119 -64 0 -8 -4 -15 -10 -15 -8 0
-33 -72 -32 -95 1 -33 15 -91 23 -93 5 -2 9 -10 9 -18 0 -8 5 -14 10 -14 6 0
10 -5 10 -12 0 -11 -96 -177 -110 -188 -3 -3 -26 -36 -50 -75 -25 -38 -58 -86
-75 -106 -16 -20 -39 -49 -49 -63 -12 -17 -22 -23 -26 -16 -11 18 -55 37 -81
35 -59 -4 -103 -36 -136 -100 -22 -42 -26 -144 -7 -173 12 -19 13 -26 3 -38
-20 -25 -144 -146 -211 -207 -34 -32 -80 -73 -100 -92 -20 -18 -39 -31 -42
-28 -3 3 -8 -2 -12 -11 -6 -16 -34 -23 -34 -7 0 20 -50 60 -81 64 -102 13
-182 -80 -184 -213 -1 -41 -5 -75 -11 -75 -8 -1 -93 -52 -119 -72 -6 -4 -37
-21 -70 -38 -33 -16 -61 -33 -63 -37 -2 -5 -9 -8 -15 -8 -7 0 -47 -18 -90 -40
-87 -44 -97 -47 -97 -25 0 27 -28 71 -55 89 -28 19 -95 29 -95 15 0 -5 -6 -6
-14 -3 -13 5 -105 -78 -107 -97 -3 -19 -5 -24 -11 -34 -3 -5 -9 -32 -13 -58
-5 -35 -11 -47 -21 -43 -8 3 -14 1 -14 -5 0 -6 -4 -7 -10 -4 -5 3 -10 1 -10
-6 0 -7 -3 -10 -6 -7 -3 4 -20 2 -37 -3 -18 -6 -41 -12 -52 -15 -42 -9 -71
-15 -100 -21 -46 -8 -60 -11 -60 -13 0 -3 -80 -13 -112 -14 -18 -1 -33 -4 -33
-8 0 -3 -8 -5 -17 -4 -12 2 -18 12 -19 32 -1 40 -32 106 -59 126 -22 17 -118
31 -109 16 3 -4 -2 -8 -10 -8 -39 0 -129 -116 -129 -166 0 -11 -20 -13 -101
-8 -56 3 -109 6 -118 5 -10 0 -18 6 -18 12 0 8 -3 7 -9 -2 -6 -9 -11 -10 -15
-2 -4 6 -11 9 -16 6 -7 -4 -34 0 -145 21 -16 4 -36 7 -43 7 -9 0 -11 17 -7 68
3 41 2 70 -5 74 -5 3 -10 13 -10 20 0 19 -31 55 -47 55 -7 0 -13 5 -13 10 0
15 -82 11 -104 -5 -10 -8 -24 -12 -30 -8 -6 3 -8 3 -4 -1 4 -4 -9 -21 -28 -38
-19 -17 -37 -41 -40 -54 -6 -23 -44 -35 -44 -14 0 6 -7 10 -15 10 -8 0 -23 4
-33 9 -9 5 -39 19 -67 32 -27 13 -51 27 -53 32 -2 4 -9 7 -16 7 -18 0 -66 24
-66 33 0 5 -4 5 -10 2 -5 -3 -10 -2 -10 3 0 5 -18 17 -40 27 -22 10 -40 22
-40 27 0 4 -6 8 -14 8 -25 0 -27 16 -7 62 24 56 20 124 -10 177 -12 23 -25 39
-27 36 -3 -3 -11 0 -18 6 -8 6 -20 9 -29 6 -8 -4 -17 -2 -20 3 -9 15 -68 -13
-110 -52 -22 -21 -43 -38 -46 -38 -4 0 -14 11 -23 25 -9 14 -20 23 -25 21 -4
-3 -14 4 -22 15 -8 11 -41 49 -74 84 -73 77 -100 108 -143 163 l-34 42 20 27
c54 79 63 176 21 237 -13 19 -27 33 -30 30 -4 -2 -11 1 -14 7 -14 22 -132 -2
-150 -32 -11 -16 -23 -10 -29 16 -4 14 -11 25 -17 25 -6 0 -8 4 -4 9 3 5 -2
16 -10 25 -9 8 -15 17 -15 18 1 2 -15 39 -35 83 -57 123 -75 165 -68 165 3 0
-1 10 -10 23 -8 12 -17 36 -21 54 -6 27 -2 36 27 64 18 19 40 52 49 74 19 51
21 141 2 160 -8 7 -14 18 -14 23 0 13 -58 37 -90 37 -14 1 -35 -5 -47 -12 -13
-8 -24 -11 -24 -8 -3 12 -6 21 -12 35 -3 8 -8 29 -10 45 -3 17 -8 46 -11 65
-4 19 -8 49 -9 65 -2 17 -7 37 -12 44 -6 10 -4 12 6 6 11 -7 12 -6 3 6 -6 8
-12 21 -12 29 -3 40 -11 125 -12 125 -1 0 -3 20 -5 46 -4 43 -2 46 35 69 33
20 92 95 96 122 1 4 2 9 3 11 2 1 4 20 6 41 4 50 -9 85 -42 114 -26 22 -38 26
-80 24 -15 -1 -23 5 -24 16 -2 40 3 122 16 252 4 41 9 89 11 105 1 17 3 30 4
30 2 0 7 32 13 84 2 19 10 37 18 39 31 9 89 42 110 63 26 26 56 94 60 134 5
60 -38 119 -98 138 -5 1 -6 6 -5 12 2 5 6 21 8 35 3 14 8 34 13 45 5 11 15 40
22 65 7 25 17 51 22 58 5 6 7 12 3 12 -3 0 0 16 8 35 8 19 12 35 9 35 -3 0 1
7 8 17 8 9 12 17 9 17 -2 1 11 40 30 87 32 83 35 86 61 82 40 -6 113 32 143
75 14 20 29 57 35 82 5 25 10 46 11 48 1 6 -34 67 -45 79 -7 6 -15 9 -19 6 -3
-4 -6 1 -6 10 0 17 63 140 108 212 14 22 30 49 36 60 6 11 36 57 65 102 50 75
56 80 74 68 16 -11 33 -12 91 -2 28 5 85 64 103 105 18 44 14 117 -8 141 -17
18 -16 20 9 52 15 19 41 49 58 66 18 18 30 33 27 33 -3 0 47 53 111 118 72 72
119 113 124 106 7 -11 53 -27 82 -29 42 -3 113 45 135 91 18 39 27 93 17 108
-13 21 -10 38 9 57 10 10 23 19 28 19 5 0 12 7 15 16 4 9 9 14 12 11 3 -3 14
2 24 11 29 26 38 32 164 116 93 62 120 76 127 65 5 -8 9 -17 9 -20 0 -4 18
-14 41 -23 31 -13 49 -14 77 -6 70 18 127 96 120 164 -3 28 1 33 47 55 28 13
55 24 60 25 6 1 17 6 25 11 8 5 20 10 25 11 6 1 27 9 48 18 20 9 37 13 37 9 0
-5 4 -3 8 3 4 5 38 20 76 32 52 17 71 20 82 11 8 -6 12 -15 9 -19 -8 -12 54
-60 78 -61 41 -2 62 3 95 23 34 21 72 83 72 117 0 11 5 23 10 26 6 3 10 0 10
-7 0 -9 3 -10 8 -2 4 6 32 15 62 19 30 4 64 9 75 11 11 2 47 6 79 9 32 3 60 6
62 7 1 2 24 3 50 3 l47 0 14 -45z"/>
<path d="M7729 12074 c0 -10 -2 -30 -4 -44 -1 -14 -6 -77 -10 -140 -4 -63 -9
-128 -10 -145 -14 -176 -19 -250 -19 -307 -1 -38 -3 -68 -6 -68 -3 0 -6 -15
-7 -32 -1 -37 -10 -157 -18 -267 -10 -118 -15 -192 -19 -246 -2 -27 -7 -90
-11 -140 -5 -49 -8 -135 -8 -190 0 -93 3 -142 18 -300 28 -288 29 -305 11
-305 -26 0 -30 -1 -44 -12 -23 -19 -28 -6 -38 97 -9 95 -12 127 -18 180 -10
79 -17 137 -21 180 -9 97 -15 127 -50 245 -20 69 -41 140 -46 158 -20 72 -28
101 -55 187 -15 50 -28 97 -29 105 -1 8 -5 23 -9 32 -4 9 -9 22 -10 30 -2 7
-5 20 -9 28 -5 16 -31 111 -32 120 0 3 -11 39 -23 80 -13 41 -29 95 -36 120
-8 25 -22 72 -32 105 -10 33 -19 63 -20 68 -1 4 -3 9 -4 12 -4 7 -5 15 -14 58
-5 20 -12 37 -18 37 -5 0 -6 5 -3 11 4 6 0 29 -8 52 -8 23 -18 54 -21 70 -11
47 -23 30 -15 -20 17 -103 21 -126 25 -147 3 -11 7 -39 10 -61 2 -21 7 -51 9
-65 3 -14 8 -41 11 -60 6 -39 9 -59 18 -110 11 -61 16 -94 21 -135 7 -49 13
-80 15 -80 1 0 4 -13 6 -30 2 -16 10 -61 16 -100 7 -38 12 -82 13 -97 0 -16 2
-28 5 -28 3 0 7 -15 8 -32 1 -18 7 -56 12 -84 6 -28 13 -66 15 -85 3 -19 12
-74 20 -124 9 -49 17 -101 19 -115 14 -95 19 -114 42 -175 4 -11 8 -23 8 -27
1 -3 4 -10 9 -14 4 -4 7 -13 7 -20 0 -7 5 -25 11 -41 17 -39 58 -155 63 -173
2 -8 14 -40 26 -70 12 -30 24 -62 25 -70 2 -8 4 -15 5 -15 1 0 3 -8 5 -17 2
-13 -20 -33 -33 -28 -1 0 -10 -6 -18 -15 -22 -21 -31 -12 -50 50 -10 30 -22
55 -27 55 -5 0 -7 6 -4 14 3 7 2 17 -2 22 -7 8 -45 102 -46 114 0 5 -56 149
-77 200 -19 45 -51 104 -70 129 -10 13 -16 27 -13 31 3 4 -2 10 -10 14 -8 3
-15 12 -15 21 0 8 -3 15 -8 15 -4 0 -16 17 -27 38 -11 20 -23 42 -28 47 -16
21 -57 86 -57 91 0 4 -56 91 -101 156 -11 15 -19 30 -19 33 0 8 -53 89 -63 96
-5 3 -8 10 -8 15 1 5 -6 17 -14 27 -8 9 -15 19 -15 21 0 4 -127 209 -170 276
-64 99 -90 142 -90 150 0 6 -4 10 -10 10 -5 0 -10 7 -10 15 0 8 -4 15 -8 15
-5 0 -17 17 -26 38 -23 51 -53 89 -53 68 0 -9 4 -16 9 -16 5 0 6 -4 3 -10 -3
-5 -1 -10 4 -10 6 0 11 -6 11 -13 0 -7 9 -32 20 -55 11 -22 20 -46 20 -52 0
-5 4 -10 10 -10 5 0 9 -3 8 -7 -2 -8 6 -28 58 -138 15 -33 28 -62 29 -65 0 -3
9 -19 18 -37 9 -18 17 -39 17 -48 0 -8 4 -15 9 -15 5 0 12 -13 16 -30 4 -16
11 -30 16 -30 5 0 9 -6 9 -14 0 -8 17 -52 39 -98 36 -78 49 -106 102 -225 12
-27 41 -90 65 -142 24 -51 44 -95 44 -97 0 -5 49 -110 105 -229 19 -38 43 -80
54 -92 12 -12 21 -26 21 -32 0 -5 3 -11 8 -13 10 -4 124 -158 117 -158 -4 0 0
-6 7 -13 16 -16 45 -55 92 -121 l34 -49 -35 -33 c-20 -19 -37 -34 -38 -34 -1
0 -17 21 -35 48 -18 26 -40 54 -47 62 -8 8 -34 42 -58 75 -25 33 -57 75 -72
94 -16 19 -27 38 -25 43 1 4 -2 8 -7 8 -5 0 -22 20 -39 45 -16 24 -31 42 -34
40 -3 -3 -11 6 -18 20 -7 14 -18 25 -24 25 -6 0 -34 22 -61 48 -28 26 -77 70
-110 97 -32 28 -70 61 -85 75 -14 14 -30 27 -35 30 -11 5 -57 44 -91 78 -13
12 -25 22 -28 22 -3 0 -21 15 -40 33 -19 17 -54 48 -77 67 -23 19 -60 51 -83
71 -41 37 -69 60 -118 101 -53 45 -120 104 -153 135 -19 18 -35 30 -35 26 0
-3 -10 5 -23 18 -12 13 -47 45 -77 70 -96 80 -105 78 -27 -5 28 -31 72 -79 97
-107 25 -28 54 -61 65 -73 11 -12 38 -44 60 -70 22 -27 54 -63 70 -81 17 -17
53 -58 80 -90 28 -32 57 -66 66 -74 8 -9 40 -45 70 -81 30 -36 77 -89 104
-118 28 -29 51 -57 53 -62 2 -5 20 -26 40 -48 74 -77 226 -251 230 -263 2 -5
10 -9 18 -9 8 0 17 -7 20 -15 4 -8 11 -15 18 -15 6 0 19 -8 28 -17 27 -29 48
-44 48 -36 0 4 4 3 8 -2 9 -14 172 -137 172 -131 0 3 14 -8 30 -24 17 -17 34
-30 39 -30 4 0 18 -9 31 -20 13 -11 19 -20 14 -20 -5 0 -18 -16 -28 -35 -11
-19 -24 -35 -30 -35 -7 0 -43 23 -81 50 -38 28 -72 50 -75 50 -4 0 -15 8 -26
18 -11 9 -27 22 -36 27 -9 6 -57 39 -108 75 -118 84 -96 72 -240 130 -69 28
-140 58 -157 66 -18 8 -36 15 -40 16 -5 0 -33 12 -63 25 -30 14 -71 31 -90 38
-19 7 -48 19 -65 26 -16 7 -32 13 -35 14 -3 1 -18 8 -35 15 -16 7 -32 14 -35
15 -17 6 -52 21 -97 41 -28 13 -56 24 -61 24 -4 0 -28 9 -51 21 -24 11 -51 22
-60 24 -9 2 -36 13 -60 25 -25 12 -50 23 -55 24 -6 2 -28 10 -50 19 -21 9 -40
17 -41 17 -2 0 -25 10 -52 22 -26 12 -51 22 -55 22 -3 1 -10 4 -14 9 -4 4 -16
7 -26 7 -10 0 -18 5 -18 10 0 6 -8 10 -17 10 -10 0 -31 7 -47 15 -16 9 -30 14
-32 12 -9 -9 32 -36 123 -81 13 -6 23 -14 23 -18 0 -5 4 -8 9 -8 9 0 131 -69
141 -80 3 -3 16 -11 30 -17 14 -7 43 -24 65 -37 22 -14 58 -35 80 -46 22 -12
42 -25 45 -29 5 -6 79 -48 117 -66 13 -5 23 -13 23 -17 0 -5 7 -8 15 -8 8 0
15 -4 15 -10 0 -5 5 -10 12 -10 6 0 45 -21 87 -47 42 -26 78 -48 81 -48 7 -1
73 -42 86 -54 7 -5 14 -8 17 -5 2 2 10 -2 17 -11 7 -8 19 -15 26 -15 8 0 14
-3 14 -7 0 -5 10 -13 23 -19 37 -18 172 -96 177 -103 13 -16 115 -56 170 -67
13 -3 29 -9 35 -13 5 -5 26 -12 45 -17 43 -10 42 -9 60 -17 24 -11 164 -57
180 -60 42 -8 69 -20 74 -33 3 -8 2 -14 -3 -14 -5 0 -12 -16 -15 -35 -6 -30
-10 -34 -36 -32 -17 1 -30 5 -30 8 0 3 -6 6 -12 7 -23 2 -43 7 -55 15 -7 5
-13 6 -13 2 0 -3 -16 1 -35 9 -19 8 -35 12 -35 8 0 -3 -5 -1 -11 5 -6 6 -17 9
-24 7 -7 -3 -16 -1 -20 5 -3 6 -19 11 -35 11 -16 0 -31 4 -34 9 -6 8 -73 26
-88 23 -5 -1 -8 3 -8 10 0 6 -3 8 -6 5 -4 -3 -14 -2 -24 3 -9 5 -34 10 -54 12
-20 1 -36 5 -36 8 0 3 -28 6 -63 7 -58 2 -152 9 -224 16 -19 2 -33 -2 -33 -7
0 -7 -3 -8 -8 -1 -9 12 -7 12 -112 20 -47 3 -116 8 -155 11 -38 3 -101 7 -140
9 -38 2 -70 5 -70 6 0 1 -22 3 -50 4 -27 2 -50 4 -50 5 0 1 -27 3 -60 4 -33 2
-68 7 -77 11 -11 4 -18 3 -18 -5 0 -6 -4 -9 -9 -5 -13 8 -71 15 -161 20 -41 3
-106 7 -145 10 -38 3 -97 7 -131 8 -33 2 -67 7 -75 12 -11 6 -12 5 -2 -5 13
-14 21 -16 78 -25 17 -3 41 -7 55 -11 14 -3 39 -8 55 -11 45 -8 60 -11 60 -13
0 -2 33 -9 70 -14 17 -3 32 -6 35 -7 3 -1 10 -3 15 -4 6 -2 12 -4 15 -5 3 -1
16 -4 30 -6 14 -1 64 -12 112 -22 48 -11 90 -17 93 -14 3 3 5 1 5 -5 0 -5 6
-10 13 -10 25 -2 119 -19 125 -23 4 -4 113 -23 137 -25 6 0 16 -5 24 -9 8 -5
26 -10 40 -11 14 -2 38 -5 54 -9 15 -3 37 -8 50 -11 12 -2 39 -8 59 -14 20 -5
39 -6 42 -3 3 2 11 0 19 -6 7 -6 31 -13 52 -16 22 -2 40 -5 40 -6 0 -2 31 -8
70 -14 17 -3 59 -12 95 -21 82 -20 120 -27 145 -25 26 2 60 2 111 -1 23 -1 51
2 64 6 15 5 20 4 16 -4 -4 -6 -2 -9 6 -6 24 9 129 12 134 3 3 -4 14 -3 25 2
14 8 19 7 19 -2 0 -8 3 -9 8 -3 6 9 36 11 52 5 18 -6 52 -5 56 2 3 5 12 4 20
-3 11 -9 11 -15 3 -25 -6 -8 -9 -14 -6 -14 2 0 2 -14 -2 -31 -6 -28 -10 -31
-48 -33 -25 -1 -39 2 -36 7 4 6 1 7 -7 2 -8 -5 -82 -10 -164 -12 -269 -6 -341
-9 -351 -15 -6 -3 -31 -9 -58 -13 -26 -4 -50 -11 -53 -16 -3 -5 -9 -7 -12 -5
-4 2 -37 -2 -72 -10 -36 -8 -76 -17 -90 -20 -14 -3 -34 -7 -45 -8 -11 -2 -27
-6 -35 -9 -16 -6 -59 -16 -99 -23 -30 -6 -153 -34 -166 -38 -5 -1 -32 -7 -60
-11 -57 -10 -63 -12 -70 -15 -3 -1 -13 -3 -22 -5 -10 -1 -25 -5 -33 -8 -8 -3
-28 -8 -45 -11 -16 -3 -41 -7 -55 -11 -46 -10 -85 -17 -97 -18 -7 0 -13 -3
-13 -6 0 -3 -12 -7 -28 -8 -27 -3 -67 -10 -67 -13 0 -1 -18 -4 -40 -6 -22 -3
-42 -8 -45 -12 -3 -4 -9 -8 -15 -9 -5 0 -27 -4 -47 -7 -21 -3 -59 -11 -85 -17
-27 -6 -59 -13 -73 -16 -43 -9 -55 -11 -57 -13 -2 -2 -12 -4 -23 -5 -11 -1
-21 -3 -22 -4 -2 -1 -16 -4 -33 -7 -32 -4 -67 -11 -75 -14 -3 -1 -9 -2 -13 -1
-5 1 -6 -3 -3 -8 6 -10 37 -7 56 4 6 3 10 0 10 -7 0 -8 3 -9 8 -3 4 6 23 11
42 12 46 2 136 10 207 19 32 4 78 8 103 10 25 1 45 3 45 4 0 1 34 4 150 14 28
2 84 8 125 12 41 4 90 8 107 8 18 1 33 3 33 6 0 3 21 5 48 5 26 -1 51 1 56 4
6 2 28 6 50 7 23 1 61 4 86 8 25 3 81 8 125 12 112 8 150 12 150 14 0 1 16 3
35 4 104 7 253 22 258 26 1 2 5 3 10 4 4 1 12 4 17 7 6 4 18 5 28 4 9 -2 17 2
17 8 0 5 3 7 6 4 4 -3 15 -2 25 3 10 6 29 11 43 12 15 1 26 5 26 9 0 3 6 6 13
6 6 0 32 6 57 13 56 17 52 16 70 23 8 3 29 9 45 13 41 10 45 11 48 14 1 1 9 3
17 5 8 1 39 10 69 19 58 17 70 15 69 -12 0 -9 0 -21 2 -27 7 -26 -1 -51 -17
-52 -23 -1 -51 -8 -85 -22 -16 -6 -28 -8 -28 -5 0 4 -6 2 -12 -3 -11 -8 -157
-57 -165 -54 -2 0 -18 -6 -38 -15 -19 -8 -35 -11 -35 -7 0 5 -4 3 -8 -4 -4 -7
-23 -15 -41 -18 -19 -3 -39 -9 -45 -13 -11 -7 -28 -11 -58 -14 -10 -1 -18 -6
-18 -11 0 -5 -7 -7 -15 -3 -8 3 -15 2 -15 -2 0 -4 -10 -12 -23 -18 -88 -42
-273 -140 -275 -146 -2 -5 -12 -8 -22 -8 -10 0 -20 -3 -22 -7 -1 -5 -34 -24
-73 -43 -38 -19 -95 -49 -126 -67 -32 -17 -60 -29 -63 -25 -3 3 -6 1 -6 -5 0
-9 -20 -19 -45 -22 -3 0 -15 -10 -27 -20 -11 -11 -25 -18 -30 -15 -4 3 -8 0
-8 -7 0 -7 -3 -9 -7 -6 -3 4 -11 3 -17 -2 -6 -5 -51 -30 -101 -56 -49 -26 -96
-51 -102 -57 -7 -6 -13 -8 -13 -4 0 3 -24 -8 -52 -24 -29 -16 -91 -48 -138
-72 -47 -24 -87 -45 -90 -48 -3 -3 -43 -25 -90 -48 -137 -70 -245 -126 -249
-128 -1 -2 0 -7 3 -13 4 -7 14 -7 24 -2 9 5 28 13 42 19 14 6 47 20 74 31 27
12 55 21 62 21 8 0 14 5 14 12 0 6 3 9 6 5 3 -3 25 3 49 13 24 10 46 16 49 13
3 -4 6 -1 6 5 0 6 13 13 30 17 16 4 46 15 67 25 21 10 41 16 45 13 5 -2 8 1 8
8 0 7 3 9 7 6 3 -4 11 -3 17 1 6 5 40 19 76 32 36 13 71 28 78 33 6 5 12 6 12
2 0 -4 11 0 25 9 13 9 32 18 42 19 18 4 33 10 108 42 22 9 45 18 50 19 6 2 26
10 45 18 46 20 73 31 83 33 4 2 9 4 12 5 3 1 10 4 15 5 6 1 13 4 18 5 4 1 10
2 15 1 4 0 7 3 7 8 0 5 14 13 32 16 18 4 39 11 48 15 22 12 150 64 160 66 3 0
16 5 30 12 14 6 57 23 95 37 156 60 260 111 312 155 7 5 15 10 19 10 4 0 30
15 58 33 28 17 60 37 71 44 11 6 73 43 139 83 86 52 121 69 129 61 6 -6 8 -11
4 -11 -4 0 -1 -13 7 -29 14 -26 14 -30 -4 -46 -11 -10 -20 -15 -20 -11 0 4 -9
-2 -20 -12 -11 -10 -48 -36 -83 -56 -34 -20 -100 -62 -147 -92 -110 -70 -106
-68 -167 -109 -29 -19 -55 -35 -59 -35 -4 0 -50 -38 -103 -83 -53 -46 -109
-95 -124 -108 -16 -13 -43 -37 -61 -54 -17 -16 -60 -55 -96 -85 -35 -30 -74
-64 -86 -75 -12 -11 -50 -45 -85 -75 -34 -30 -70 -62 -79 -70 -9 -8 -43 -37
-75 -65 -33 -27 -67 -57 -75 -65 -16 -15 -131 -117 -204 -180 -23 -19 -46 -40
-52 -45 -6 -6 -39 -35 -74 -65 -35 -30 -76 -67 -92 -82 -16 -16 -31 -28 -33
-28 -2 0 -17 -12 -33 -28 -16 -15 -58 -52 -93 -82 -35 -30 -71 -63 -81 -72
-10 -10 -20 -18 -23 -18 -3 0 -19 -15 -36 -32 -17 -18 -35 -32 -40 -31 -5 2
-9 -2 -9 -7 0 -6 3 -10 6 -10 9 0 108 73 112 82 2 5 10 8 18 8 8 0 14 4 14 8
0 4 13 16 30 25 16 10 35 23 42 30 7 7 39 30 71 51 31 22 57 43 57 48 0 4 3 7
8 6 4 -2 25 10 47 26 22 17 60 45 85 63 25 18 50 36 55 40 6 5 57 42 115 83
58 41 110 79 117 85 24 20 39 30 83 60 25 16 47 32 50 35 3 4 27 22 55 41 27
18 55 39 61 44 6 6 21 17 33 25 77 52 370 265 387 281 11 10 26 19 32 19 7 0
12 5 12 10 0 6 5 10 11 10 6 0 16 6 24 13 7 6 26 21 41 32 29 20 118 104 380
363 l145 142 29 -32 29 -31 -28 -31 c-15 -17 -74 -79 -132 -137 -252 -257
-317 -327 -361 -389 -26 -36 -55 -74 -64 -85 -9 -11 -32 -44 -51 -72 -20 -29
-40 -53 -44 -53 -5 0 -8 -3 -7 -7 2 -5 -22 -42 -53 -83 -64 -86 -249 -339
-397 -545 -56 -77 -105 -144 -109 -150 -5 -5 -20 -26 -33 -45 -13 -19 -29 -40
-35 -46 -5 -6 -17 -21 -25 -34 -44 -65 -135 -186 -144 -192 -6 -4 -7 -8 -3 -8
5 0 2 -6 -5 -13 -7 -7 -24 -30 -38 -50 -14 -20 -28 -37 -32 -37 -5 0 -8 -6 -8
-13 0 -7 -11 -24 -25 -39 -14 -15 -25 -30 -25 -34 0 -3 -22 -34 -48 -68 -27
-33 -59 -77 -71 -96 l-23 -35 27 30 c15 17 46 51 69 76 23 26 55 64 72 84 16
20 38 47 49 59 68 77 96 109 150 171 33 39 64 75 70 81 5 7 35 40 65 75 30 34
62 70 70 79 8 9 40 45 70 81 30 35 57 66 60 69 3 3 64 73 135 155 71 83 132
152 135 155 3 3 30 34 60 70 30 35 62 71 70 80 8 9 38 42 65 74 28 32 55 64
60 70 6 6 39 45 75 86 36 41 70 80 75 86 34 38 53 64 75 99 13 22 27 42 30 45
4 3 9 12 13 20 4 8 37 61 74 117 38 57 104 158 147 225 43 68 81 125 83 127 1
3 13 -5 26 -17 13 -12 29 -22 35 -22 9 0 9 -6 0 -25 -6 -14 -15 -25 -20 -25
-4 0 -8 -6 -8 -12 -1 -12 -107 -189 -130 -215 -5 -7 -10 -16 -10 -21 0 -4 -9
-18 -20 -30 -11 -12 -21 -25 -21 -29 -1 -12 -142 -237 -154 -245 -5 -4 -7 -8
-2 -8 4 0 0 -15 -10 -32 -9 -18 -17 -36 -18 -40 0 -3 -3 -10 -7 -14 -5 -4 -8
-16 -8 -26 0 -10 -4 -18 -10 -18 -5 0 -10 -9 -10 -20 0 -11 -5 -20 -11 -20 -5
0 -7 -5 -4 -10 4 -6 2 -16 -3 -23 -6 -7 -52 -107 -102 -222 -90 -205 -103
-235 -160 -360 -15 -33 -45 -100 -66 -150 -21 -49 -42 -93 -47 -96 -5 -3 -8
-9 -8 -13 2 -13 -11 -56 -18 -56 -4 0 -15 -25 -26 -55 -10 -30 -21 -55 -25
-55 -4 0 -7 -6 -7 -12 0 -7 -10 -35 -23 -63 -12 -27 -31 -70 -42 -95 -11 -25
-29 -64 -39 -87 -11 -23 -19 -47 -19 -52 0 -6 -5 -11 -12 -11 -6 0 -8 -3 -5
-6 4 -4 0 -19 -7 -33 -23 -43 -61 -124 -62 -130 -1 -8 -20 -52 -65 -149 -22
-46 -39 -90 -39 -98 0 -8 -4 -14 -9 -14 -5 0 -11 -10 -14 -21 l-6 -21 20 20
c10 12 19 26 19 31 0 5 15 36 34 68 18 32 51 92 73 133 38 71 74 137 131 240
41 75 83 151 125 230 21 41 45 78 51 82 6 4 7 8 2 8 -5 0 -4 6 1 13 6 6 30 48
53 92 24 44 52 96 63 115 11 19 33 60 50 90 16 30 40 73 52 95 12 22 46 85 75
140 30 55 64 117 77 138 13 20 20 37 16 37 -5 0 -3 4 2 8 11 8 27 35 75 127
17 33 51 96 76 140 44 79 70 131 84 170 9 24 39 102 50 130 39 98 110 293 110
303 0 6 4 12 10 12 5 0 9 3 8 8 -3 10 23 85 35 100 5 6 6 12 3 12 -4 0 -2 9 5
21 8 15 14 18 22 10 6 -6 21 -11 33 -11 12 0 24 -5 26 -12 4 -12 -21 -94 -47
-153 -7 -16 -19 -50 -26 -75 -7 -25 -17 -48 -22 -51 -5 -3 -8 -8 -6 -10 1 -2
-6 -29 -16 -59 -11 -30 -20 -59 -21 -65 -1 -5 -14 -38 -27 -72 -14 -34 -22
-64 -19 -67 3 -3 -1 -6 -8 -6 -7 0 -11 -3 -7 -6 3 -4 0 -22 -8 -42 -17 -39
-26 -76 -28 -109 -1 -13 -5 -23 -11 -23 -5 0 -7 -2 -4 -5 5 -6 -4 -59 -27
-162 -12 -53 -14 -62 -19 -94 -3 -19 -8 -43 -10 -54 -11 -47 -67 -322 -71
-345 -2 -14 -15 -79 -29 -145 -35 -167 -43 -209 -50 -250 -3 -13 -7 -28 -10
-33 -2 -4 -7 -28 -10 -53 -3 -25 -7 -52 -10 -60 -3 -7 -7 -25 -10 -39 -2 -14
-11 -59 -19 -100 -9 -41 -18 -86 -21 -100 -3 -14 -7 -36 -10 -50 -3 -14 -9
-41 -12 -60 -4 -19 -9 -44 -11 -55 -2 -11 -6 -31 -9 -45 -2 -14 -7 -36 -11
-50 -3 -14 -7 -27 -8 -30 0 -3 -5 -27 -10 -55 -4 -27 -10 -54 -11 -60 -2 -5
-5 -21 -8 -35 -3 -14 -9 -36 -12 -50 -3 -14 -6 -34 -5 -45 0 -10 -5 -25 -10
-32 -7 -8 -7 -17 1 -30 11 -17 11 -17 6 1 -4 10 -2 24 2 30 5 6 12 22 15 36 3
14 15 59 27 100 12 41 23 82 25 90 1 8 12 42 22 75 23 71 46 145 49 163 1 6
14 49 27 95 48 155 70 232 70 245 0 6 3 12 7 12 4 0 7 6 7 13 0 6 6 32 13 57
8 25 14 47 15 50 1 3 9 30 19 61 9 31 19 65 21 75 3 11 19 64 36 119 17 55 32
107 34 115 2 8 4 15 5 15 1 0 3 9 5 19 2 10 11 42 20 70 10 28 19 58 20 66 2
8 13 44 24 80 10 36 35 120 55 186 19 67 40 133 46 148 5 14 8 26 5 26 -2 0 5
26 16 57 11 32 22 69 24 83 3 14 7 34 9 46 2 12 7 45 11 75 3 30 8 61 10 69 3
8 7 35 10 60 3 25 7 59 10 75 2 17 7 50 10 75 3 25 8 59 11 75 7 34 9 53 20
142 6 59 8 61 38 65 43 5 66 -1 61 -15 -2 -7 -7 -32 -10 -57 -12 -96 -15 -127
-20 -175 -2 -27 -7 -63 -9 -80 -3 -16 -8 -50 -11 -75 -2 -25 -7 -60 -10 -79
-14 -91 -18 -159 -19 -303 0 -87 3 -158 8 -158 5 0 3 -6 -3 -13 -6 -8 -8 -17
-4 -20 3 -4 7 -87 9 -184 4 -286 15 -658 19 -662 3 -2 0 -12 -6 -22 -5 -11 -6
-19 -2 -19 7 0 11 -89 16 -412 1 -59 5 -98 12 -98 7 0 7 -3 0 -8 -11 -8 -16
-62 -6 -62 3 0 6 -20 6 -45 0 -25 -3 -45 -6 -45 -3 0 -3 -23 1 -50 4 -28 3
-53 -2 -56 -5 -3 -5 -11 -1 -17 4 -7 8 -25 9 -40 4 -54 11 -37 12 30 1 38 4
95 6 128 3 33 7 101 10 150 4 50 8 117 11 150 2 33 6 101 10 150 3 50 8 122
11 160 8 113 24 370 28 455 1 31 6 61 10 68 4 7 2 12 -4 12 -6 0 -8 5 -4 12 5
7 9 37 10 68 2 30 5 91 9 135 3 44 7 112 9 151 2 39 6 76 10 82 3 6 2 13 -4
17 -6 4 -7 12 -3 18 23 37 21 350 -4 582 -2 22 -5 61 -6 87 -1 27 -4 48 -7 48
-3 0 -5 24 -6 53 0 28 -3 75 -6 102 -5 46 -3 51 15 52 11 1 23 6 26 10 3 4 16
9 28 10 15 2 21 -3 21 -15 0 -9 3 -46 6 -82 4 -36 9 -81 11 -100 3 -35 11
-104 22 -190 3 -25 7 -65 9 -90 10 -125 17 -163 44 -260 17 -58 35 -123 41
-145 6 -22 15 -51 20 -65 5 -14 10 -34 12 -45 2 -11 6 -27 9 -35 3 -8 11 -33
17 -55 6 -22 20 -73 32 -114 11 -41 22 -81 24 -90 2 -9 13 -47 25 -86 11 -38
22 -79 25 -90 2 -11 20 -74 40 -140 20 -66 38 -127 40 -135 2 -8 10 -40 19
-70 8 -30 18 -66 21 -80 4 -14 9 -32 12 -40 3 -8 8 -24 10 -35 6 -26 9 -37 15
-55 15 -41 31 -102 31 -115 0 -8 5 -15 10 -15 6 0 8 -3 5 -6 -4 -3 3 -36 13
-72 29 -97 31 -105 32 -124 1 -10 5 -18 10 -18 5 0 7 -9 4 -20 -3 -11 -1 -23
4 -26 5 -3 7 -9 4 -14 -3 -5 0 -12 6 -15 11 -7 6 61 -11 137 -4 20 -5 39 -2
43 3 3 1 5 -4 5 -5 0 -10 19 -12 43 -2 40 -9 82 -12 82 -2 0 -8 32 -14 75 -6
40 -15 94 -22 130 -9 47 -14 75 -18 110 -3 19 -6 36 -7 38 -1 1 -3 11 -4 22
-1 11 -3 21 -4 23 -3 2 -9 43 -15 92 -3 17 -5 32 -6 35 -3 6 -4 13 -14 75 -13
84 -14 90 -16 90 -2 0 -19 100 -26 150 -1 11 -5 31 -8 45 -3 13 -8 40 -11 60
-5 34 -7 46 -19 110 -3 14 -8 41 -10 60 -7 46 -14 83 -27 150 -7 30 -13 69
-15 85 -1 17 -6 44 -9 60 -4 17 -9 41 -10 55 -2 14 -4 25 -5 25 -1 0 -4 18 -6
40 -6 46 -51 184 -66 202 -6 7 -8 13 -5 13 3 0 -8 37 -25 83 -16 45 -30 88
-31 95 0 6 -4 12 -8 12 -3 0 -9 12 -12 28 -2 15 -18 63 -35 108 -30 82 -29
114 3 114 8 0 15 5 15 11 0 16 45 6 46 -11 0 -8 6 -26 11 -40 6 -14 23 -56 38
-95 15 -38 30 -79 35 -90 25 -62 34 -91 32 -97 -1 -5 3 -8 8 -8 6 0 10 -6 10
-14 0 -7 9 -35 19 -62 31 -79 34 -89 33 -96 -1 -5 3 -8 10 -8 6 0 9 -3 6 -6
-4 -3 17 -42 44 -87 28 -45 58 -95 67 -112 9 -16 19 -32 22 -35 4 -3 19 -27
34 -55 16 -27 34 -56 42 -63 7 -8 11 -17 8 -22 -3 -5 -1 -10 4 -12 8 -3 183
-281 205 -325 6 -13 14 -23 19 -23 4 0 7 -7 7 -15 0 -8 4 -15 8 -15 4 0 13
-12 19 -27 12 -27 33 -63 43 -73 3 -3 11 -15 18 -27 6 -13 18 -33 25 -45 6
-13 14 -25 17 -28 3 -3 33 -49 65 -103 33 -54 68 -110 78 -125 9 -15 20 -35
23 -44 4 -10 10 -18 15 -18 5 0 9 -7 9 -15 0 -8 4 -15 8 -15 4 0 13 -12 19
-27 12 -27 33 -63 43 -73 3 -3 12 -18 20 -35 8 -16 18 -32 22 -35 3 -3 8 -12
10 -20 2 -8 11 -21 21 -28 9 -7 14 -18 11 -24 -4 -6 -2 -8 3 -5 7 4 -1 30 -21
69 -17 35 -51 106 -75 158 -24 52 -57 122 -72 156 -16 34 -29 66 -29 72 0 7
-4 12 -10 12 -5 0 -10 5 -10 11 0 6 -14 41 -32 78 -18 36 -33 68 -33 71 -2 7
-85 187 -153 330 -14 30 -25 58 -24 63 1 4 -3 7 -8 7 -6 0 -10 6 -10 13 0 7
-13 37 -28 67 -16 30 -29 57 -30 60 -8 33 -26 70 -33 70 -5 0 -9 6 -9 13 0 8
-13 41 -30 75 -16 34 -30 64 -30 67 0 2 -29 64 -64 138 -57 121 -111 209 -158
261 -10 11 -18 26 -18 33 0 8 -4 11 -10 8 -5 -3 -10 1 -10 9 0 9 -8 24 -17 34
-35 36 -67 77 -63 79 3 1 -5 13 -17 27 -13 15 -23 30 -23 35 0 5 -3 11 -7 13
-12 5 -63 75 -63 86 0 6 14 26 32 46 l31 35 35 -49 c19 -28 39 -50 43 -50 5 0
9 -6 9 -14 0 -8 3 -16 8 -18 4 -1 36 -41 71 -88 35 -46 68 -89 73 -95 4 -5 22
-28 38 -50 41 -55 42 -56 73 -93 15 -19 27 -31 27 -27 0 3 17 -9 38 -28 63
-59 99 -91 141 -125 22 -18 53 -45 69 -60 17 -15 43 -38 59 -52 79 -67 159
-137 175 -152 10 -10 20 -18 23 -18 2 0 15 -10 27 -23 22 -21 78 -69 177 -154
25 -21 55 -48 68 -61 13 -13 23 -21 23 -18 0 2 13 -8 28 -22 24 -23 107 -96
176 -155 31 -26 115 -100 166 -146 25 -22 50 -41 55 -41 6 0 1 8 -11 18 -11 9
-51 53 -90 97 -38 44 -79 90 -91 102 -13 12 -23 24 -23 27 0 3 -10 16 -22 28
-23 24 -64 70 -168 187 -30 34 -64 72 -75 85 -11 12 -46 52 -79 89 -32 36 -70
79 -85 95 -14 15 -48 54 -76 86 -27 32 -66 74 -85 95 -19 20 -62 68 -95 106
-84 98 -116 134 -150 171 -16 17 -37 40 -46 50 -21 26 -52 51 -129 105 -36 26
-76 57 -90 69 -14 12 -37 29 -52 38 -16 9 -28 20 -28 24 0 4 -7 8 -15 8 -8 0
-15 4 -15 9 0 5 -8 12 -17 15 -10 3 -36 22 -57 41 -22 19 -46 35 -53 35 -11 0
-11 5 2 28 40 67 41 68 80 46 19 -10 35 -22 35 -26 0 -5 7 -8 15 -8 8 0 15 -3
15 -7 0 -5 25 -24 55 -43 30 -19 55 -38 55 -42 0 -5 7 -8 15 -8 8 0 15 -4 15
-10 0 -5 4 -10 10 -10 5 0 18 -7 27 -15 73 -59 206 -140 248 -149 6 -2 26 -10
45 -18 49 -23 92 -41 195 -82 50 -20 99 -41 110 -46 51 -23 121 -52 130 -54
13 -4 61 -23 100 -41 16 -8 77 -33 135 -56 58 -23 110 -45 115 -49 6 -4 28
-13 50 -20 22 -7 56 -20 75 -28 19 -9 38 -15 43 -14 4 1 7 -3 7 -9 0 -5 5 -7
10 -4 6 3 10 1 10 -4 0 -6 3 -10 8 -9 4 2 25 -5 47 -14 22 -9 42 -15 45 -15 3
1 19 -6 35 -15 37 -20 67 -32 78 -30 4 1 7 -3 7 -9 0 -5 4 -8 9 -4 5 3 12 1
16 -5 3 -5 15 -10 26 -10 10 0 19 -5 19 -11 0 -5 4 -8 9 -4 5 3 17 -2 25 -11
9 -8 16 -11 16 -5 0 12 -44 42 -92 64 -16 6 -28 15 -28 19 0 5 -9 8 -20 8 -11
0 -20 4 -20 8 0 5 -29 24 -65 43 -36 18 -65 37 -65 41 0 5 -4 8 -9 8 -8 0
-151 80 -161 90 -3 3 -15 11 -27 18 -13 6 -33 18 -45 25 -13 6 -25 14 -28 17
-3 3 -18 12 -35 20 -16 8 -48 26 -70 40 -22 13 -49 30 -60 36 -41 23 -151 87
-175 102 -14 9 -27 16 -30 16 -3 0 -9 4 -15 9 -5 5 -31 21 -57 35 -138 78
-304 177 -308 183 -5 6 -168 67 -200 74 -8 2 -35 11 -60 20 -25 9 -49 17 -55
19 -5 1 -30 9 -55 16 -25 7 -48 13 -52 12 -5 -1 -8 2 -8 8 0 6 -3 9 -7 8 -14
-3 -103 24 -109 33 -3 5 4 30 15 55 l21 46 26 -17 c15 -9 23 -11 19 -4 -6 8
-4 10 6 3 8 -4 19 -9 24 -10 6 -1 32 -10 58 -19 27 -9 57 -17 68 -18 10 -1 19
-5 19 -9 0 -4 13 -8 28 -8 16 0 32 -3 36 -7 4 -5 11 -8 14 -8 25 -1 102 -29
102 -38 0 -5 6 -4 14 2 10 8 16 9 21 1 3 -6 11 -8 16 -5 5 4 9 2 9 -3 0 -9 2
-10 65 -16 22 -3 40 -5 40 -6 0 -1 34 -3 75 -5 41 -3 111 -7 155 -11 44 -3
108 -7 142 -8 35 0 63 -4 63 -7 0 -3 29 -5 65 -5 36 1 65 -1 65 -4 0 -3 28 -5
63 -5 34 1 66 -1 71 -4 6 -2 33 -6 60 -7 108 -6 186 -13 196 -19 6 -3 10 -1
10 5 0 6 5 8 11 4 6 -4 34 -8 63 -10 71 -6 166 -12 261 -19 122 -8 151 -11
161 -18 6 -3 16 -1 24 5 13 8 12 9 -1 5 -9 -3 -22 0 -28 6 -6 6 -11 7 -11 3 0
-5 -7 -3 -15 4 -8 7 -15 10 -15 7 0 -3 -15 -1 -32 4 -18 5 -53 12 -78 15 -25
3 -49 9 -54 12 -5 3 -19 6 -30 8 -12 2 -52 10 -91 19 -38 9 -88 19 -110 22
-22 3 -42 8 -45 12 -3 3 -14 7 -25 7 -11 1 -32 4 -47 8 -48 11 -82 18 -103 20
-11 2 -38 8 -60 14 -22 6 -53 13 -70 16 -16 3 -43 9 -60 12 -16 4 -39 8 -50
10 -11 1 -20 3 -20 4 0 2 -25 8 -65 16 -52 9 -65 12 -65 14 0 1 -11 3 -25 5
-14 2 -35 6 -47 9 -13 3 -33 8 -45 11 -13 2 -43 9 -68 15 -54 12 -99 21 -120
24 -9 1 -21 5 -28 10 -6 4 -12 5 -12 2 0 -2 -15 0 -32 5 -18 5 -158 10 -311
10 l-278 1 5 45 c2 24 7 47 10 50 3 4 69 7 146 7 77 1 140 5 140 10 0 5 6 4
13 -1 12 -10 44 -10 54 0 2 3 18 1 34 -3 16 -5 29 -5 29 -1 0 3 28 6 63 5 34
0 76 3 92 8 17 5 39 11 50 13 75 12 101 17 106 21 3 2 20 6 37 9 27 4 114 24
187 42 11 2 29 6 40 8 11 2 31 7 45 10 43 10 74 16 93 18 9 1 17 4 17 7 0 4 6
7 13 7 15 1 76 12 97 18 8 2 29 7 45 10 40 8 60 13 60 15 0 1 11 3 25 5 27 4
60 11 143 31 4 1 9 3 12 4 7 4 15 5 70 14 28 4 55 12 60 16 6 5 20 9 30 9 11
0 38 4 60 10 22 5 51 12 65 15 138 29 177 38 190 43 8 3 19 5 23 4 5 -1 6 3 2
8 -3 6 -11 8 -18 6 -7 -3 -34 -6 -60 -9 -27 -2 -51 -6 -54 -10 -3 -3 -14 -1
-24 5 -11 5 -19 6 -19 1 0 -5 -12 -9 -27 -9 -28 0 -97 -6 -223 -19 -36 -4 -84
-7 -107 -8 -24 0 -43 -3 -43 -6 0 -3 -17 -6 -38 -6 -46 -2 -167 -12 -167 -14
0 -1 -25 -3 -55 -5 -30 -2 -82 -6 -115 -9 -33 -3 -87 -8 -120 -11 -33 -3 -78
-7 -100 -10 -65 -8 -197 -18 -237 -19 -21 0 -38 -2 -38 -5 0 -4 -15 -7 -33 -7
-34 -2 -72 -10 -85 -18 -5 -3 -24 -8 -42 -11 -18 -3 -38 -9 -44 -13 -6 -3 -17
-7 -24 -8 -8 -2 -21 -6 -30 -10 -9 -4 -26 -8 -37 -10 -31 -4 -49 -9 -60 -15
-8 -5 -55 -19 -75 -23 -3 -1 -11 -5 -17 -9 -7 -5 -13 -6 -13 -3 0 3 -24 -3
-52 -13 -80 -26 -90 -23 -94 24 -2 40 11 69 27 60 4 -3 34 4 66 15 52 19 75
26 108 33 6 2 15 5 20 9 10 6 116 37 125 37 3 0 21 7 40 15 19 8 37 14 40 14
3 1 18 5 33 11 16 6 32 11 37 11 6 0 38 14 72 32 35 17 84 42 110 55 26 13 50
28 53 33 3 6 15 10 25 10 10 0 20 3 22 8 2 4 37 24 78 46 101 52 235 123 288
152 23 13 42 21 42 18 0 -3 7 2 16 10 8 9 19 14 24 11 5 -3 10 -1 12 3 3 10
68 47 198 113 47 23 88 47 91 51 3 5 16 10 27 11 12 1 22 4 22 8 0 4 21 18 48
31 176 90 237 123 240 130 2 5 7 6 11 4 3 -3 18 4 31 15 20 15 22 19 8 19 -10
0 -18 -5 -18 -12 0 -6 -3 -9 -6 -5 -4 3 -19 0 -34 -8 -15 -8 -30 -11 -34 -8
-3 4 -6 1 -6 -5 0 -6 -14 -14 -32 -17 -18 -4 -39 -11 -48 -15 -8 -5 -42 -18
-75 -31 -33 -12 -73 -28 -90 -34 -51 -22 -169 -67 -180 -70 -5 -1 -21 -7 -35
-12 -14 -6 -47 -20 -75 -30 -27 -11 -59 -24 -70 -28 -11 -4 -24 -7 -29 -6 -5
1 -12 -2 -15 -6 -3 -5 -58 -28 -121 -51 -63 -24 -127 -49 -141 -57 -14 -8 -29
-12 -33 -8 -3 3 -6 1 -6 -6 0 -7 -4 -10 -8 -7 -4 2 -21 -1 -37 -9 -17 -7 -79
-32 -140 -55 -113 -42 -118 -44 -195 -79 -40 -18 -236 -135 -357 -214 -24 -15
-47 -27 -53 -27 -5 0 -10 -5 -10 -11 0 -5 -4 -8 -9 -4 -6 3 -14 -3 -20 -12 -6
-10 -11 -13 -11 -8 0 6 -4 5 -8 -2 -7 -11 -42 -23 -39 -12 1 3 -4 13 -12 22
-7 10 -10 17 -6 17 4 0 2 6 -4 13 -8 11 -7 18 7 31 10 9 22 13 25 9 4 -3 7 -1
7 5 0 6 26 25 58 43 31 18 59 36 60 41 2 4 10 8 18 8 8 0 14 3 14 8 0 4 14 13
30 20 17 8 36 19 43 26 6 6 59 41 117 76 58 35 112 72 121 82 9 10 19 18 22
18 3 0 21 15 39 33 19 17 65 59 103 92 70 61 143 126 201 180 18 17 47 43 66
59 33 29 147 130 198 176 15 14 53 48 85 75 31 28 71 64 89 80 18 17 61 55 96
85 34 30 77 69 94 85 18 17 58 53 90 80 31 28 76 67 99 88 l42 39 -37 -24
c-39 -25 -227 -157 -243 -171 -12 -10 -128 -92 -217 -153 -38 -26 -68 -51 -68
-55 0 -5 -4 -9 -10 -9 -11 0 -230 -152 -286 -199 -7 -6 -15 -7 -18 -4 -3 4 -6
2 -6 -4 0 -5 -27 -27 -60 -49 -33 -21 -60 -42 -60 -46 0 -5 -6 -8 -14 -8 -8 0
-16 -4 -18 -8 -1 -4 -32 -28 -68 -52 -36 -25 -77 -54 -91 -65 -14 -11 -36 -27
-49 -35 -66 -45 -103 -78 -299 -272 l-214 -212 -29 33 -29 33 73 73 c294 294
373 381 456 502 12 17 244 341 307 429 17 23 37 52 45 64 8 12 26 37 40 55 24
31 238 331 270 378 8 12 41 58 72 102 177 247 180 247 -52 -15 -80 -90 -152
-172 -160 -180 -8 -9 -44 -50 -80 -90 -36 -41 -74 -84 -85 -96 -11 -12 -42
-48 -70 -80 -27 -32 -61 -69 -74 -83 -13 -15 -46 -52 -75 -85 -28 -32 -62 -71
-76 -86 -25 -28 -130 -146 -163 -183 -10 -12 -42 -48 -72 -81 -30 -34 -90
-117 -134 -186 -44 -69 -85 -130 -91 -137 -5 -7 -15 -24 -22 -38 -6 -14 -15
-25 -20 -25 -4 0 -8 -4 -8 -10 0 -12 -107 -177 -120 -185 -6 -4 -10 -2 -10 3
0 5 -11 14 -25 20 -14 6 -25 16 -25 21 0 5 66 114 146 242 170 272 181 291
220 384 15 39 31 72 34 75 3 3 6 10 7 15 1 6 11 31 22 58 11 26 21 49 21 52 0
3 9 22 20 42 11 21 20 41 20 45 0 4 14 38 31 75 31 67 51 113 54 123 1 3 8 21
17 40 8 19 36 85 62 145 26 61 54 124 61 140 7 17 34 80 60 140 49 115 54 128
104 238 17 38 31 71 31 73 0 5 32 78 55 127 19 38 2 34 -18 -5 -31 -61 -103
-193 -135 -246 -18 -29 -32 -55 -32 -57 0 -2 -14 -28 -31 -57 -17 -29 -45 -78
-61 -108 -17 -30 -43 -77 -58 -105 -38 -71 -77 -140 -120 -215 -21 -36 -52
-92 -70 -125 -18 -33 -42 -76 -53 -95 -11 -19 -33 -60 -50 -90 -37 -67 -51
-92 -84 -150 -43 -76 -113 -210 -114 -217 -2 -12 -10 -36 -19 -58 -4 -11 -46
-120 -91 -242 -46 -121 -87 -219 -92 -216 -4 2 -20 7 -34 9 -35 7 -34 4 -22
47 5 20 9 40 9 43 -1 4 2 10 7 13 5 3 16 29 25 56 18 55 65 191 75 215 3 8 7
20 8 25 2 6 13 36 25 67 12 32 20 59 19 60 -1 2 4 14 11 28 8 14 15 30 16 35
1 6 4 26 8 45 13 75 17 96 22 110 3 8 7 31 10 50 2 19 7 45 9 58 3 12 7 34 10
50 3 15 12 62 21 105 8 42 18 90 20 105 9 46 33 166 39 192 3 14 8 36 10 50 4
27 12 73 19 105 6 28 44 224 50 260 3 17 8 41 11 55 3 14 8 39 10 55 3 17 8
37 10 45 2 8 7 31 10 50 8 52 46 243 51 258 2 7 0 11 -5 7 -5 -3 -12 -20 -16
-38 -4 -17 -20 -75 -37 -127 -16 -52 -30 -103 -31 -112 -1 -10 -5 -18 -9 -18
-4 0 -8 -7 -8 -15 0 -8 -6 -34 -14 -57 -8 -24 -24 -77 -36 -118 -12 -41 -38
-127 -58 -190 -20 -63 -37 -119 -38 -125 -1 -5 -12 -39 -24 -75 -12 -36 -23
-72 -25 -80 -1 -8 -11 -42 -21 -75 -10 -33 -19 -64 -20 -70 -1 -5 -9 -29 -18
-53 -8 -23 -15 -46 -16 -50 0 -4 -9 -34 -19 -67 -10 -33 -26 -85 -35 -115 -10
-30 -20 -62 -23 -70 -3 -8 -7 -22 -9 -30 -6 -33 -10 -45 -16 -56 -4 -6 -10
-33 -13 -60 -3 -27 -10 -74 -15 -104 -5 -30 -12 -77 -16 -105 -11 -83 -14
-104 -18 -132 -2 -16 -7 -46 -10 -68 -3 -22 -8 -58 -11 -80 -4 -22 -8 -49 -9
-60 -2 -16 -11 -20 -42 -20 -37 0 -39 2 -38 30 4 77 16 178 30 255 2 14 7 50
10 80 10 109 12 126 19 160 11 55 2 451 -11 471 -3 5 0 9 6 9 6 0 8 5 4 11 -3
6 -8 68 -10 138 -6 239 -14 402 -19 411 -3 5 -1 11 5 15 6 4 7 11 3 18 -3 6
-7 45 -8 86 -5 202 -17 496 -21 500 -2 2 -4 -4 -5 -15z"/>
<path d="M7070 11924 c0 -13 18 -39 24 -34 2 3 -2 14 -10 24 -8 11 -14 16 -14
10z"/>
<path d="M10280 9716 c0 -2 8 -10 18 -17 15 -13 16 -12 3 4 -13 16 -21 21 -21
13z"/>
<path d="M4836 8833 c-6 -14 -5 -15 5 -6 7 7 10 15 7 18 -3 3 -9 -2 -12 -12z"/>
<path d="M4940 8040 c0 -6 -4 -9 -9 -5 -5 3 -22 -6 -38 -20 l-28 -26 28 17
c15 9 27 13 27 9 0 -4 6 -2 13 4 8 6 17 8 20 4 4 -3 7 -1 7 5 0 6 -4 14 -10
17 -5 3 -10 1 -10 -5z"/>
<path d="M4845 7990 c3 -5 8 -10 11 -10 2 0 4 5 4 10 0 6 -5 10 -11 10 -5 0
-7 -4 -4 -10z"/>
<path d="M8370 6190 c0 -5 5 -10 11 -10 5 0 7 5 4 10 -3 6 -8 10 -11 10 -2 0
-4 -4 -4 -10z"/>
<path d="M16045 12429 c-27 -11 -52 -22 -53 -24 -2 -2 14 -13 36 -24 53 -27
94 -79 115 -144 13 -40 27 -58 57 -79 49 -34 74 -82 138 -273 83 -244 123
-493 127 -803 3 -160 6 -196 19 -211 21 -23 20 -33 -5 -66 -25 -31 -15 -45 33
-45 39 0 41 18 35 258 -8 337 -63 637 -173 952 -106 306 -208 484 -272 479 -4
0 -29 -9 -57 -20z"/>
<path d="M15560 12370 c0 -6 21 -30 47 -55 48 -44 48 -44 51 -119 2 -42 6 -76
8 -76 2 0 19 8 39 17 26 13 35 23 35 42 0 36 -37 107 -72 136 -40 34 -108 68
-108 55z"/>
<path d="M15845 12003 c-4 -27 -10 -69 -14 -95 -8 -44 -2 -58 24 -58 7 0 54
88 61 114 5 22 1 33 -22 57 -15 16 -31 29 -35 29 -4 0 -11 -21 -14 -47z"/>
<path d="M15913 11797 c-18 -7 -37 -17 -44 -24 -14 -14 -5 -53 20 -84 l19 -23
24 49 c49 97 47 106 -19 82z"/>
<path d="M15796 11140 c-11 -80 -12 -410 -1 -407 6 2 18 26 28 53 22 62 19
295 -5 359 l-16 40 -6 -45z"/>
<path d="M15760 10668 c0 -2 -7 -59 -15 -127 -8 -69 -12 -127 -9 -130 10 -10
51 49 63 89 15 50 14 84 -3 124 -11 27 -36 57 -36 44z"/>
<path d="M15943 10624 c-21 -16 -33 -34 -33 -49 0 -22 2 -23 36 -12 32 10 38
9 50 -7 7 -11 15 -23 17 -29 1 -5 26 1 55 13 29 13 51 28 49 33 -6 19 -98 77
-121 77 -11 0 -36 -12 -53 -26z"/>
<path d="M15900 10445 c0 -62 1 -65 24 -65 22 0 26 7 37 56 14 61 7 74 -38 74
-22 0 -23 -4 -23 -65z"/>
<path d="M15691 10278 c-12 -51 -39 -174 -61 -273 -22 -99 -60 -239 -85 -312
-25 -73 -45 -137 -45 -143 0 -16 46 -12 61 6 13 15 106 281 144 409 9 28 20
102 25 165 6 63 16 139 22 168 10 45 9 55 -3 63 -30 19 -38 7 -58 -83z"/>
<path d="M15642 9472 c-29 -57 -52 -108 -50 -112 2 -5 17 -2 35 7 46 22 75 86
71 155 l-3 53 -53 -103z"/>
<path d="M15788 9465 c-45 -30 -53 -53 -35 -96 l13 -34 41 78 c22 42 35 77 29
77 -6 0 -28 -11 -48 -25z"/>
<path d="M15593 9289 c-30 -48 -93 -187 -93 -205 0 -26 25 -14 47 24 54 90 74
142 71 179 l-3 38 -22 -36z"/>
<path d="M2097 8272 c-3 -15 -3 -46 0 -68 4 -30 -1 -52 -17 -83 -12 -24 -18
-47 -13 -51 13 -12 76 -31 82 -25 3 4 7 51 9 106 4 94 3 102 -19 125 -29 31
-35 30 -42 -4z"/>
<path d="M1972 7649 c-13 -62 -26 -118 -29 -125 -7 -19 37 -18 65 2 18 13 22
25 22 74 0 33 5 71 12 85 14 31 -3 75 -29 75 -15 0 -22 -20 -41 -111z"/>
<path d="M15182 7618 c-48 -24 -192 -239 -192 -289 0 -15 47 -67 53 -58 13 16
197 347 197 354 0 9 -34 4 -58 -7z"/>
<path d="M1530 6908 c0 -24 -7 -72 -16 -108 -9 -38 -13 -84 -10 -110 4 -28 0
-64 -10 -95 -19 -63 -29 -232 -16 -265 l10 -25 12 30 c7 17 15 96 19 178 5 90
12 152 19 159 13 13 15 82 3 113 -6 14 -2 28 15 48 28 33 30 63 8 95 -23 33
-34 27 -34 -20z"/>
<path d="M1708 4899 c-34 -25 -35 -49 -9 -140 14 -48 16 -71 8 -84 -9 -17 -1
-171 20 -377 6 -55 5 -58 -28 -89 l-34 -32 40 7 c79 15 100 47 96 151 -2 53 3
95 13 125 20 56 20 80 1 116 -11 21 -15 63 -15 156 0 121 -1 128 -26 157 -30
36 -31 36 -66 10z"/>
</g>
</svg>
