<svg width="304" height="227" viewBox="0 0 304 227" fill="none" xmlns="http://www.w3.org/2000/svg">
<g clip-path="url(#clip0_63_137)">
<path d="M9.63477 174.222C11.1413 156.513 20.2471 138.836 34.7354 132.652C29.3816 150.994 29.8341 170.925 36.0128 188.919C38.4175 195.849 41.7187 203.268 39.7654 210.384C38.5501 214.811 35.4101 218.265 31.8627 220.472C28.3151 222.679 24.3478 223.799 20.4301 224.898L19.6714 225.66C13.0486 209.584 8.1282 191.93 9.63477 174.222Z" fill="#F0F0F0"/>
<path d="M34.888 132.982C26.7077 144.101 21.559 158.301 20.6588 172.859C20.4642 176.007 20.5046 179.219 21.1706 182.295C21.8398 185.288 23.1927 188.021 25.0889 190.208C26.8213 192.288 28.8026 194.185 30.0657 196.714C31.3971 199.38 31.5154 202.451 30.7109 205.349C29.7266 208.895 27.6945 211.822 25.6209 214.605C23.3185 217.695 20.8846 220.863 19.9675 224.895C19.8564 225.384 19.2046 225.157 19.3155 224.669C20.9111 217.653 26.6913 213.522 29.3485 207.166C30.5884 204.2 31.0598 200.786 29.7653 197.734C28.6333 195.065 26.5917 193.106 24.8218 191.018C22.9633 188.824 21.5216 186.4 20.7402 183.445C19.9409 180.423 19.7914 177.206 19.9153 174.067C20.2423 166.95 21.539 159.937 23.7577 153.285C26.2534 145.676 29.8609 138.615 34.4242 132.407C34.7068 132.023 35.1687 132.6 34.888 132.982L34.888 132.982Z" fill="white"/>
<path d="M20.7346 168.109C18.6177 167.584 16.7317 166.21 15.4135 164.232C14.0954 162.253 13.4308 159.799 13.5385 157.309C13.5437 157.207 13.5829 157.112 13.6479 157.043C13.7129 156.974 13.7986 156.937 13.8869 156.94C13.9752 156.942 14.0592 156.984 14.1212 157.056C14.1833 157.129 14.2185 157.226 14.2195 157.328C14.1155 159.647 14.7347 161.932 15.9655 163.771C17.1962 165.611 18.9574 166.883 20.9312 167.359C21.36 167.462 21.1609 168.213 20.7346 168.109Z" fill="white"/>
<path d="M24.0898 189.286C27.83 186.56 30.5405 182.31 31.6806 177.384C31.7932 176.896 32.4451 177.123 32.3326 177.611C31.1378 182.734 28.3094 187.15 24.4118 189.977C24.0402 190.247 23.7202 189.554 24.0898 189.286Z" fill="white"/>
<path d="M26.9018 146.4C27.6841 146.8 28.5404 146.969 29.3937 146.894C30.2471 146.818 31.0708 146.5 31.7908 145.967C32.1593 145.692 32.4789 146.385 32.1128 146.658C31.3149 147.242 30.4049 147.593 29.4622 147.679C28.5196 147.764 27.573 147.583 26.7052 147.151C26.6204 147.118 26.5497 147.049 26.5074 146.958C26.4651 146.868 26.4544 146.762 26.4775 146.662C26.5039 146.563 26.5634 146.48 26.6428 146.431C26.7223 146.381 26.8153 146.37 26.9018 146.4H26.9018Z" fill="white"/>
<path d="M80.0079 162.843C79.7821 163.021 79.5562 163.2 79.3302 163.386C76.3043 165.81 73.4544 168.513 70.8087 171.468C70.601 171.693 70.3934 171.924 70.1918 172.155C63.8834 179.353 58.7904 187.837 55.1715 197.177C53.7345 200.894 52.5451 204.733 51.6138 208.658C50.3278 214.08 49.308 220.076 46.621 224.56C46.3452 225.031 46.0443 225.482 45.7201 225.911L20.5373 226.667C20.4793 226.636 20.4212 226.611 20.3629 226.579L19.3586 226.663C19.3944 226.456 19.4353 226.243 19.4711 226.037C19.4914 225.917 19.5173 225.797 19.5376 225.677C19.5529 225.597 19.5685 225.517 19.5784 225.444C19.5834 225.418 19.5887 225.391 19.5939 225.371C19.6037 225.298 19.6196 225.231 19.6296 225.165C19.8556 223.973 20.0892 222.781 20.3305 221.588C20.3303 221.582 20.3303 221.582 20.3358 221.575C22.1945 212.495 24.7277 203.513 28.3642 195.26C28.4737 195.012 28.5827 194.757 28.7037 194.508C30.3608 190.799 32.2784 187.251 34.4374 183.902C35.6247 182.072 36.8916 180.312 38.2334 178.63C41.7077 174.291 45.753 170.608 50.2211 167.716C59.1289 161.953 69.538 159.535 79.2666 162.6C79.5155 162.679 79.7589 162.757 80.0079 162.843Z" fill="#F0F0F0"/>
<path d="M79.9596 163.212C67.6149 166.419 56.0797 174.187 47.7498 185.187C45.9489 187.565 44.3017 190.158 43.225 193.076C42.1945 195.93 41.8464 199.049 42.2168 202.11C42.5124 204.972 43.1026 207.861 42.7889 210.756C42.4582 213.807 40.9473 216.341 38.7897 218.097C36.1498 220.246 32.9969 221.174 29.8862 221.959C26.4324 222.83 22.8329 223.671 19.9924 226.255C19.6483 226.568 19.2465 225.935 19.5902 225.623C24.5322 221.127 31.3073 221.836 36.7519 218.604C39.2924 217.095 41.4536 214.696 42.0159 211.361C42.5077 208.445 41.9013 205.466 41.5802 202.571C41.2431 199.532 41.3595 196.596 42.2802 193.695C43.2221 190.728 44.7847 188.056 46.5249 185.635C50.5066 180.18 55.2084 175.479 60.458 171.706C66.4286 167.361 73.0006 164.225 79.8897 162.432C80.3161 162.321 80.3833 163.102 79.9596 163.212H79.9596Z" fill="white"/>
<path d="M50.2936 181.447C48.8778 179.56 48.0906 177.155 48.0725 174.661C48.0543 172.167 48.8065 169.748 50.1947 167.834C50.4767 167.448 51.011 167.934 50.7286 168.321C49.4331 170.1 48.7327 172.354 48.7537 174.676C48.7747 176.998 49.5157 179.235 50.8431 180.983C51.1312 181.364 50.58 181.825 50.2936 181.447Z" fill="white"/>
<path d="M41.9009 200.682C46.3128 201.098 50.6988 199.584 54.1843 196.441C54.5295 196.13 54.9313 196.763 54.5866 197.074C50.9541 200.336 46.387 201.901 41.7968 201.457C41.3593 201.414 41.4658 200.639 41.9009 200.682H41.9009Z" fill="white"/>
<path d="M66.568 168.388C66.9837 169.25 67.5787 169.979 68.2995 170.51C69.0204 171.042 69.8446 171.359 70.698 171.432C71.1358 171.469 71.0288 172.243 70.5939 172.207C69.6513 172.121 68.7415 171.77 67.9439 171.185C67.1463 170.6 66.4852 169.799 66.0185 168.852C65.968 168.767 65.9475 168.663 65.9612 168.561C65.9749 168.459 66.0217 168.367 66.0921 168.304C66.1651 168.243 66.2561 168.218 66.3452 168.233C66.4343 168.249 66.5144 168.305 66.568 168.388Z" fill="white"/>
<path d="M227.809 15.5374C227.433 14.2589 222.718 9.91286 225.607 9.18239L227.977 12.8206L238.87 0.276123L239.966 1.53781L227.809 15.5374Z" fill="#3FE210"/>
<path d="M227.809 58.1942C227.433 56.9156 222.718 52.5696 225.607 51.8391L227.977 55.4774L238.87 42.9329L239.966 44.1945L227.809 58.1942Z" fill="#3FE210"/>
<path d="M227.809 101.46C227.433 100.182 222.718 95.8355 225.607 95.105L227.977 98.7432L238.87 86.1987L239.966 87.4604L227.809 101.46Z" fill="#3FE210"/>
<path d="M217.778 66.4806C219.634 66.4806 221.139 64.7475 221.139 62.6096C221.139 60.4716 219.634 58.7385 217.778 58.7385C215.921 58.7385 214.416 60.4716 214.416 62.6096C214.416 64.7475 215.921 66.4806 217.778 66.4806Z" fill="#3F3D56"/>
<path d="M217.778 24.2863C219.634 24.2863 221.139 22.5531 221.139 20.4152C221.139 18.2773 219.634 16.5442 217.778 16.5442C215.921 16.5442 214.416 18.2773 214.416 20.4152C214.416 22.5531 215.921 24.2863 217.778 24.2863Z" fill="#3F3D56"/>
<path d="M304 11.5117H249.88V12.2859H304V11.5117Z" fill="#3F3D56"/>
<path d="M219.459 111.46C221.315 111.46 222.82 109.727 222.82 107.589C222.82 105.451 221.315 103.718 219.459 103.718C217.602 103.718 216.097 105.451 216.097 107.589C216.097 109.727 217.602 111.46 219.459 111.46Z" fill="#3F3D56"/>
<path d="M304 54.1682H249.88V54.9424H304V54.1682Z" fill="#3F3D56"/>
<path d="M304 97.4341H249.88V98.2083H304V97.4341Z" fill="#3F3D56"/>
<path d="M236.299 107.228H219.492V87.4856H230.921V88.2598H220.164V106.454H235.627V97.5503H236.299V107.228Z" fill="#3F3D56"/>
<path d="M236.299 63.8722H219.492V44.1299H230.921V44.9041H220.164V63.098H235.627V54.1946H236.299V63.8722Z" fill="#3F3D56"/>
<path d="M236.299 19.7423H219.492V0H230.921V0.774208H220.164V18.9681H235.627V10.0647H236.299V19.7423Z" fill="#3F3D56"/>
<path d="M126.562 70.3646C126.562 70.3646 122.07 92.2055 127.56 92.2055C133.05 92.2055 146.027 67.4908 146.027 67.4908L141.535 61.1685L133.472 74.059L133.05 67.4908L126.562 70.3646Z" fill="#A0616A"/>
<path d="M144.83 68.4402C147.243 68.4402 149.2 66.1871 149.2 63.4078C149.2 60.6285 147.243 58.3755 144.83 58.3755C142.416 58.3755 140.46 60.6285 140.46 63.4078C140.46 66.1871 142.416 68.4402 144.83 68.4402Z" fill="#A0616A"/>
<path d="M122.753 219.12L128.569 219.119L131.337 193.281L122.752 193.282L122.753 219.12Z" fill="#A0616A"/>
<path d="M122.548 226.107L140.436 226.106V225.846C140.435 223.72 139.702 221.68 138.396 220.177C137.09 218.673 135.32 217.829 133.473 217.828H133.473L130.205 214.974L124.109 217.829L122.548 217.829L122.548 226.107Z" fill="#2F2E41"/>
<path d="M60.1834 210.762L65.388 213.753L77.8833 192.058L70.2017 187.643L60.1834 210.762Z" fill="#A0616A"/>
<path d="M57.2902 216.909L73.2953 226.107L73.3964 225.874C74.2208 223.972 74.3552 221.77 73.77 219.753C73.1849 217.736 71.928 216.07 70.2759 215.12L70.2755 215.12L68.459 210.885L61.8973 210.305L60.5002 209.502L57.2902 216.909Z" fill="#2F2E41"/>
<path d="M191.554 226.133H0V227H191.554V226.133Z" fill="#CCCCCC"/>
<path d="M85.1459 109.987C85.1459 109.987 82.8213 142.174 82.3222 149.071C81.98 153.395 81.1408 157.647 79.8267 161.716C79.8267 161.716 78.8285 164.015 78.8285 166.314L67.5155 189.991C67.5155 189.991 64.0585 192.917 64.5576 195.216C65.0567 197.515 62.4733 198.894 62.4733 198.894L74.3869 201.539C74.3869 201.539 73.8878 199.814 75.3851 199.24C76.8824 198.665 78.0743 193.68 78.0743 193.68L94.7998 162.291L106.778 133.553C106.778 133.553 113.766 159.417 115.263 162.291C115.263 162.291 120.753 194.477 121.751 197.351C122.75 200.225 123.249 200.225 122.75 201.375C122.25 202.524 122.25 203.674 122.75 204.248C123.249 204.823 132.732 204.248 132.732 204.248L130.236 163.44L125.744 114.586L102.785 106.539L85.1459 109.987Z" fill="#2F2E41"/>
<path d="M107.624 33.1485C113.412 33.1485 118.105 27.7446 118.105 21.0785C118.105 14.4125 113.412 9.00854 107.624 9.00854C101.835 9.00854 97.1426 14.4125 97.1426 21.0785C97.1426 27.7446 101.835 33.1485 107.624 33.1485Z" fill="#A0616A"/>
<path d="M126.742 50.7874L114.265 42.0819C114.265 42.0819 113.919 36.6761 110.364 36.4217C108.58 36.294 105.901 36.0988 101.882 35.8004C101.032 35.7373 100.459 41.0891 99.4856 41.0164L86.315 45.0398L88.3114 84.1234C88.3114 84.1234 85.3168 99.642 86.315 102.516C87.3132 105.39 83.8195 106.539 84.8177 107.114C85.8159 107.689 84.8177 111.712 84.8177 111.712C84.8177 111.712 104.283 123.207 125.744 114.586L123.748 107.114C124.019 106.137 124.07 105.097 123.896 104.091C123.721 103.085 123.327 102.147 122.75 101.366C122.75 101.366 124.746 97.9177 122.25 95.0439C122.25 95.0439 123.249 89.871 120.753 87.572L120.254 79.5253L121.751 75.502L126.742 50.7874Z" fill="#E6E6E6"/>
<path d="M98.5288 27.9736L98.2358 27.1899C98.1981 27.0886 94.4914 16.9978 97.7769 10.7735C99.2978 7.89197 102.063 6.26511 105.996 5.93849C112.15 5.42607 116.362 7.10716 118.518 10.9315C118.88 11.5797 119.083 12.328 119.106 13.0979C119.13 13.8678 118.973 14.6307 118.652 15.3065C118.331 15.9823 117.857 16.546 117.282 16.9383C116.706 17.3306 116.049 17.537 115.38 17.5359H115.298L114.167 15.8452L114.101 16.0096C113.692 17.0295 112.751 17.5879 111.65 17.4656C111.463 17.4501 111.297 17.6363 111.164 18.0347C111.119 18.209 111.034 18.3662 110.918 18.4898C110.803 18.6133 110.66 18.6987 110.506 18.7369C109.692 18.9193 108.532 17.7391 108.013 17.1509C107.993 17.2863 107.948 17.4151 107.881 17.5287C107.814 17.6424 107.727 17.7381 107.625 17.8094C107.078 18.1729 106.226 17.6981 105.982 17.5469C104.035 18.0232 102.775 17.8958 102.235 17.1687C101.869 20.1508 101.084 25.5184 100.142 25.816C100.043 25.842 99.94 25.8309 99.8475 25.7844C99.7549 25.7378 99.6778 25.6581 99.6275 25.5572C99.4007 25.2181 99.198 25.0491 99.0715 25.0966C98.765 25.2088 98.5841 26.3709 98.5582 27.1209L98.5288 27.9736Z" fill="#2F2E41"/>
<path d="M121.252 51.3622L126.231 50.4307C129.818 54.399 132.261 59.5388 133.231 65.1564C134.728 74.3526 135.227 76.0769 135.227 76.0769L123.249 79.5254L116.76 65.1564L121.252 51.3622Z" fill="#E6E6E6"/>
<path d="M99.1596 63.3235L96.0828 108.241L174.602 115.373L177.679 70.4562L99.1596 63.3235Z" fill="white"/>
<path d="M107.548 66.8035C105.627 65.2233 103.187 65.109 102.255 65.1317C102.54 66.1537 103.423 68.775 105.345 70.3559C107.271 71.9401 109.707 72.0509 110.638 72.0288C110.354 71.0071 109.47 68.3848 107.548 66.8035Z" fill="#3FE210"/>
<path d="M115.129 95.3852L102.521 94.2399C102.148 94.206 101.774 94.257 101.418 94.3899C101.063 94.5228 100.734 94.7351 100.449 95.0145C100.165 95.2939 99.9315 95.6351 99.7618 96.0185C99.5921 96.4018 99.4896 96.82 99.4602 97.249C99.4308 97.678 99.4751 98.1095 99.5905 98.5188C99.7059 98.9281 99.8902 99.3072 100.133 99.6345C100.376 99.9617 100.672 100.231 101.005 100.426C101.338 100.622 101.701 100.74 102.073 100.773L114.681 101.919C115.434 101.987 116.179 101.709 116.753 101.144C117.327 100.58 117.682 99.7761 117.742 98.9097C117.801 98.0433 117.559 97.1852 117.069 96.5242C116.579 95.8633 115.881 95.4535 115.129 95.3852Z" fill="#3FE210"/>
<path d="M174.583 66.0902L103.895 59.6681C103.073 59.5935 102.246 59.7062 101.461 59.9996C100.677 60.2931 99.9503 60.7616 99.3232 61.3784C98.696 61.9952 98.1805 62.7482 97.8061 63.5945C97.4317 64.4407 97.2056 65.3636 97.1409 66.3104L94.4223 105.97C94.2917 107.882 94.826 109.777 95.9077 111.236C96.9895 112.695 98.5303 113.6 100.191 113.751L170.88 120.173C171.702 120.248 172.529 120.135 173.313 119.841C174.098 119.548 174.824 119.079 175.451 118.463C176.079 117.846 176.594 117.093 176.969 116.247C177.343 115.4 177.569 114.477 177.634 113.531L180.217 75.8362L180.269 75.0661L180.351 73.8677C180.416 72.9209 180.318 71.9686 180.064 71.0654C179.809 70.1621 179.402 69.3254 178.866 68.6032C178.331 67.881 177.677 67.2873 176.942 66.8561C176.207 66.425 175.406 66.1647 174.583 66.0902ZM172.496 100.596L172.048 107.13C171.966 108.284 171.491 109.353 170.726 110.105C169.961 110.856 168.969 111.229 167.967 111.14L158.51 110.282C157.508 110.188 156.579 109.64 155.926 108.76C155.273 107.879 154.95 106.737 155.027 105.582L155.475 99.0483C155.557 97.8945 156.033 96.825 156.797 96.0735C157.562 95.322 158.554 94.9496 159.556 95.0376L169.01 95.8967C170.012 95.9913 170.941 96.5385 171.594 97.4188C172.247 98.2992 172.571 99.4412 172.496 100.596ZM98.8346 97.1888C98.908 96.1315 99.3425 95.151 100.043 94.4622C100.743 93.7734 101.652 93.4327 102.571 93.5148L115.178 94.6609C115.634 94.7014 116.078 94.8448 116.485 95.083C116.892 95.3212 117.255 95.6495 117.552 96.0492C117.849 96.4488 118.074 96.9119 118.216 97.412C118.357 97.9122 118.412 98.4395 118.377 98.964C118.341 99.4884 118.216 99.9996 118.009 100.468C117.802 100.937 117.516 101.354 117.169 101.696C116.822 102.038 116.42 102.298 115.985 102.46C115.551 102.623 115.093 102.685 114.637 102.644L114.631 102.646L102.023 101.5C101.568 101.458 101.124 101.314 100.717 101.075C100.311 100.835 99.9488 100.506 99.6526 100.106C99.3564 99.7054 99.1317 99.2416 98.9914 98.7411C98.851 98.2406 98.7977 97.7131 98.8346 97.1888ZM101.534 64.8727L101.447 64.4665L101.81 64.4283C101.952 64.4107 105.306 64.064 107.916 66.2115C110.527 68.359 111.327 72.1268 111.362 72.2844L111.445 72.6914L111.083 72.7335C110.57 72.7774 110.054 72.7735 109.541 72.7217C107.909 72.6117 106.332 71.9986 104.976 70.9465C102.366 68.799 101.565 65.0312 101.534 64.8727Z" fill="#3FE210"/>
<path d="M161.89 104.929L157.793 104.557C157.501 104.531 157.211 104.639 156.988 104.859C156.766 105.078 156.628 105.391 156.605 105.727C156.582 106.064 156.675 106.397 156.865 106.654C157.056 106.911 157.327 107.07 157.619 107.098L161.716 107.47C162.009 107.496 162.298 107.387 162.521 107.168C162.743 106.948 162.882 106.636 162.905 106.299C162.928 105.963 162.834 105.63 162.644 105.373C162.453 105.116 162.183 104.956 161.89 104.929Z" fill="#3FE210"/>
<path d="M169.455 105.616L165.358 105.244C165.065 105.218 164.776 105.327 164.554 105.546C164.331 105.766 164.193 106.078 164.17 106.414C164.147 106.751 164.241 107.084 164.431 107.341C164.621 107.598 164.891 107.757 165.184 107.785L169.281 108.157C169.573 108.183 169.862 108.074 170.085 107.854C170.308 107.635 170.446 107.323 170.469 106.987C170.492 106.65 170.398 106.317 170.208 106.06C170.018 105.803 169.747 105.644 169.455 105.616Z" fill="#3FE210"/>
<path d="M162.114 101.662L158.017 101.29C157.724 101.264 157.435 101.373 157.213 101.593C156.99 101.812 156.852 102.124 156.829 102.461C156.806 102.797 156.9 103.13 157.09 103.387C157.28 103.644 157.55 103.804 157.843 103.831L161.94 104.203C162.232 104.229 162.522 104.12 162.744 103.901C162.967 103.682 163.105 103.369 163.128 103.033C163.151 102.696 163.058 102.363 162.867 102.106C162.677 101.849 162.406 101.689 162.114 101.662Z" fill="#3FE210"/>
<path d="M169.679 102.349L165.581 101.977C165.289 101.951 165 102.06 164.777 102.279C164.554 102.499 164.416 102.811 164.393 103.148C164.37 103.484 164.464 103.817 164.654 104.074C164.844 104.331 165.115 104.491 165.407 104.518L169.505 104.89C169.797 104.916 170.086 104.808 170.309 104.588C170.532 104.369 170.67 104.056 170.693 103.72C170.716 103.383 170.622 103.05 170.432 102.793C170.242 102.536 169.971 102.377 169.679 102.349Z" fill="#3FE210"/>
<path d="M162.338 98.3955L158.24 98.0233C157.948 97.9973 157.659 98.106 157.436 98.3254C157.213 98.5449 157.075 98.8571 157.052 99.1937C157.029 99.5302 157.123 99.8636 157.313 100.121C157.503 100.377 157.774 100.537 158.066 100.564L162.164 100.936C162.456 100.962 162.745 100.853 162.968 100.634C163.19 100.414 163.328 100.102 163.351 99.7659C163.374 99.4295 163.281 99.0963 163.091 98.8394C162.901 98.5825 162.63 98.4229 162.338 98.3955Z" fill="#3FE210"/>
<path d="M169.903 99.0827L165.805 98.7105C165.513 98.6848 165.224 98.7936 165.001 99.013C164.779 99.2324 164.641 99.5446 164.618 99.881C164.595 100.217 164.688 100.551 164.878 100.807C165.068 101.064 165.339 101.224 165.631 101.251L169.729 101.624C170.021 101.649 170.31 101.54 170.533 101.321C170.755 101.102 170.893 100.79 170.916 100.453C170.939 100.117 170.845 99.7835 170.655 99.5266C170.465 99.2697 170.195 99.1101 169.903 99.0827Z" fill="#3FE210"/>
<path d="M96.0902 78.8241L96.0375 79.5962L179.017 87.1027L179.069 86.3306L96.0902 78.8241Z" fill="white"/>
<path d="M180.269 75.066L180.217 75.8363L177.329 75.5754L146.561 72.7921L146.616 72.021L177.381 74.805L180.269 75.066Z" fill="#3F3D56"/>
<path d="M78.8285 66.8805C78.8285 66.8805 74.3366 88.7214 79.8267 88.7214C85.3168 88.7214 98.2935 64.0067 98.2935 64.0067L93.8016 57.6843L85.739 70.5749L85.3168 64.0067L78.8285 66.8805Z" fill="#A0616A"/>
<path d="M97.0966 64.9563C99.51 64.9563 101.466 62.7032 101.466 59.924C101.466 57.1447 99.51 54.8916 97.0966 54.8916C94.6831 54.8916 92.7266 57.1447 92.7266 59.924C92.7266 62.7032 94.6831 64.9563 97.0966 64.9563Z" fill="#A0616A"/>
<path d="M89.9509 48.4884L86.9562 45.0398C86.9562 45.0398 80.967 49.0631 80.4679 53.0864C79.9688 57.1098 77.4733 69.7545 77.4733 69.7545L86.7067 70.6166L89.7013 65.4438L89.9509 48.4884Z" fill="#E6E6E6"/>
</g>
<defs>
<clipPath id="clip0_63_137">
<rect width="304" height="227" fill="white"/>
</clipPath>
</defs>
</svg>
