<svg width="201" height="230" viewBox="0 0 201 230" fill="none" xmlns="http://www.w3.org/2000/svg">
<g clip-path="url(#clip0_63_233)">
<path d="M96.4584 215.768L96.2022 209.998C96.1756 209.984 96.1489 209.97 96.1222 209.956C93.3773 208.513 90.2314 211.125 91.1082 214.103C91.9331 216.906 92.4873 219.927 93.9973 222.381C94.8894 223.805 96.0902 225.011 97.5106 225.908C98.931 226.804 100.535 227.369 102.203 227.561L105.69 229.7C106.168 227.027 106.063 224.283 105.381 221.655C104.698 219.027 103.456 216.579 101.738 214.478C100.763 213.31 99.6443 212.269 98.4094 211.38C97.5742 213.586 96.4584 215.768 96.4584 215.768Z" fill="#F2F2F2"/>
<path d="M65.2358 157.209C58.5217 150.272 48.7922 146.293 38.5418 146.293L38.1465 146.294C31.3948 146.297 24.7637 144.503 18.9312 141.096L18.3243 140.741L18.8131 140.237C21.4595 137.494 23.6693 134.359 25.365 130.944C24.1607 132.068 22.7243 132.914 21.1575 133.421C19.5907 133.929 17.9318 134.084 16.2982 133.878C14.5735 133.672 12.9177 133.077 11.4552 132.139C9.99256 131.2 8.76109 129.942 7.85311 128.459C4.27051 122.635 0 114.372 0 108.077C0.00557686 102.757 1.11761 97.4953 3.26522 92.629C5.41283 87.7626 8.5489 83.3978 12.4735 79.813C14.9582 77.5685 16.9428 74.8246 18.2979 71.7602C19.6531 68.6958 20.3483 65.3797 20.3384 62.0281L20.3365 61.5511C20.3358 57.1384 20.874 52.7422 21.9392 48.4606L22.0474 48.0282L22.4914 48.0437C25.3549 48.1413 28.2198 47.9009 31.0271 47.3273C28.3939 47.0037 25.8178 46.3173 23.372 45.2875L22.8944 45.0939L23.0565 44.6035C34.2317 37.6716 59.4573 41.2613 74.099 7.70055C85.9715 -19.5127 127.861 31.8577 127.861 61.5511C127.861 64.5809 124.868 68.5848 127.109 70.5874C151.33 92.2355 134.618 106.137 129.349 120.124C128.099 123.443 130.809 127.086 130.809 130.677C130.809 131.286 130.794 131.915 130.763 132.546L130.716 133.516L129.909 132.978C128.311 131.929 126.83 130.712 125.491 129.348C126.88 132.55 127.535 136.024 127.407 139.513C127.279 143.002 126.372 146.418 124.752 149.51C122.214 154.309 119.758 157.746 117.453 159.722C110.07 166.052 100.553 169.317 90.8466 168.85C81.1404 168.382 71.979 164.218 65.2358 157.209Z" fill="#E6E6E6"/>
<path d="M105.786 229.415C105.951 229.415 106.111 229.355 106.236 229.247C106.36 229.138 106.442 228.988 106.465 228.825C106.494 228.62 109.349 207.992 106.785 180.578C104.417 155.26 96.8128 118.793 74.034 88.8437C73.9794 88.7718 73.9112 88.7113 73.8333 88.6658C73.7554 88.6203 73.6694 88.5907 73.58 88.5785C73.4907 88.5664 73.3998 88.572 73.3126 88.595C73.2254 88.6181 73.1437 88.6581 73.0719 88.7129C73.0002 88.7676 72.94 88.836 72.8946 88.9141C72.8493 88.9922 72.8198 89.0785 72.8078 89.168C72.7958 89.2576 72.8015 89.3486 72.8247 89.4359C72.8478 89.5232 72.8879 89.6051 72.9426 89.6769C95.5247 119.368 103.068 155.567 105.419 180.706C107.968 207.961 105.135 228.427 105.106 228.631C105.093 228.729 105.1 228.828 105.128 228.922C105.156 229.017 105.203 229.104 105.268 229.178C105.332 229.253 105.412 229.312 105.501 229.353C105.591 229.394 105.688 229.415 105.786 229.415Z" fill="#3F3D56"/>
<path d="M87.1975 131.089C87.3424 131.089 87.4837 131.043 87.6009 130.958C87.7182 130.873 87.8056 130.752 87.8504 130.614C87.8952 130.476 87.8953 130.327 87.8506 130.189C87.8058 130.051 87.7186 129.931 87.6014 129.846C87.5187 129.785 79.1855 123.77 66.7276 119.2C55.2111 114.976 37.6986 111.147 19.6698 116.895C19.5838 116.923 19.5041 116.967 19.4351 117.025C19.3661 117.083 19.3092 117.154 19.2677 117.234C19.2262 117.315 19.201 117.402 19.1933 117.492C19.1856 117.582 19.1958 117.673 19.2231 117.759C19.2505 117.845 19.2945 117.925 19.3527 117.994C19.4108 118.063 19.482 118.12 19.5622 118.161C19.6423 118.203 19.7298 118.228 19.8197 118.235C19.9095 118.243 20 118.233 20.0859 118.205C37.7453 112.575 54.9403 116.341 66.2558 120.491C78.5359 124.996 86.7136 130.898 86.7947 130.958C86.9117 131.043 87.0528 131.089 87.1975 131.089Z" fill="#3F3D56"/>
<path d="M118.596 52.7439C118.606 52.5991 118.571 52.4547 118.494 52.3314C118.418 52.208 118.305 52.1121 118.17 52.0573C118.036 52.0026 117.888 51.9918 117.747 52.0266C117.607 52.0613 117.481 52.1398 117.387 52.2508C117.321 52.3291 110.732 60.2227 105.286 72.342C100.251 83.5454 95.1774 100.769 99.6021 119.198C99.6447 119.375 99.7557 119.528 99.9109 119.623C100.066 119.718 100.253 119.748 100.429 119.705C100.606 119.662 100.759 119.551 100.854 119.396C100.949 119.24 100.979 119.053 100.936 118.876C96.6023 100.825 101.59 83.9143 106.537 72.9064C111.906 60.96 118.371 53.2138 118.436 53.1369C118.53 53.0262 118.585 52.8886 118.596 52.7439Z" fill="#3F3D56"/>
<path d="M117.667 88.1827C118.246 92.8612 121.482 96.7187 126.188 96.7187C128.448 96.7187 130.615 95.8194 132.213 94.2186C133.81 92.6177 134.708 90.4466 134.708 88.1827C134.708 83.4684 130.873 80.0825 126.188 79.6467C121.216 79.1842 116.924 82.1761 117.667 88.1827Z" fill="#2F2E41"/>
<path d="M130.134 225.655L133.379 225.655L134.922 213.117L130.133 213.117L130.134 225.655Z" fill="#FFB6B6"/>
<path d="M130.02 229.046L139.998 229.046V228.92C139.998 227.888 139.588 226.898 138.86 226.169C138.132 225.439 137.144 225.029 136.114 225.029H136.114L134.291 223.644L130.891 225.029L130.02 225.029L130.02 229.046Z" fill="#2F2E41"/>
<path d="M117.354 225.655L120.598 225.655L122.142 213.117L117.353 213.117L117.354 225.655Z" fill="#FFB6B6"/>
<path d="M117.239 229.046L127.217 229.046V228.92C127.217 227.888 126.808 226.898 126.08 226.169C125.351 225.439 124.364 225.029 123.334 225.029H123.333L121.511 223.644L118.11 225.029L117.239 225.029L117.239 229.046Z" fill="#2F2E41"/>
<path d="M141.3 147.127L143.594 155.006L140.891 188.377C140.891 188.377 142.283 190.464 141.3 190.464C140.317 190.464 139.056 190.926 139.85 192.173C140.644 193.419 137.93 197.892 137.93 197.892L134.09 221.653L129.198 221.581C129.198 221.581 126.71 220.192 128.106 218.789C129.502 217.385 130.485 217.385 129.175 216.072C127.864 214.759 127.864 215.154 127.864 214.136C127.864 213.117 126.55 200.67 129.665 195.895L128.726 176.428L126.516 195.523L121.965 220.996L117.252 220.958C117.252 220.958 115.075 218.855 115.079 217.299C115.083 215.744 116.424 215.614 115.426 214.694C114.428 213.774 114.428 199.636 117.377 191.777C117.377 191.777 119.046 187.386 117.373 185.882C115.701 184.377 117.371 182.656 117.371 182.656C117.371 182.656 120.02 181.696 117.369 178.933C114.718 176.169 117.355 156.625 117.355 156.625C117.355 156.625 114.457 148.735 117.392 145.633C120.327 142.531 141.3 147.127 141.3 147.127Z" fill="#2F2E41"/>
<path d="M100.443 160.702L104.536 150.793L107.76 152.588L105.813 162.668C106.008 163.307 106.021 163.987 105.852 164.633C105.682 165.279 105.336 165.864 104.852 166.324C104.368 166.783 103.766 167.098 103.113 167.234C102.46 167.369 101.783 167.319 101.157 167.09C100.531 166.861 99.9807 166.461 99.5689 165.936C99.157 165.411 98.8995 164.781 98.8254 164.118C98.7512 163.454 98.8633 162.783 99.1491 162.179C99.4349 161.576 99.883 161.065 100.443 160.702Z" fill="#FFB6B6"/>
<path d="M169.122 82.3449L162.894 91.0673L160.16 88.5872L164.336 79.2114C164.291 78.5451 164.431 77.8793 164.743 77.2889C165.054 76.6984 165.524 76.2067 166.099 75.869C166.674 75.5313 167.332 75.361 167.998 75.3773C168.665 75.3936 169.314 75.5957 169.872 75.9611C170.43 76.3265 170.875 76.8405 171.157 77.4455C171.439 78.0504 171.548 78.7223 171.47 79.3856C171.392 80.0488 171.131 80.6772 170.716 81.2C170.301 81.7228 169.749 82.1193 169.122 82.3449Z" fill="#FFB6B6"/>
<path d="M141.918 147.935C145.957 154.212 125.653 162.177 117.863 158.979C116.498 158.419 111.806 156.57 115.013 154.005C118.221 151.441 114.641 151.08 114.557 149.411C114.5 148.295 115.363 145.847 114.463 145.952C113.563 146.057 112.51 144.514 114.47 143.849C116.429 143.185 114.491 142.58 114.508 141.949C114.695 135.069 119.964 124.126 119.964 124.126L110.47 148.44C110.47 148.44 110.54 152.646 109.329 151.361C108.119 150.075 108.207 154.236 108.207 154.236C108.207 154.236 106.407 155.494 107.442 156.195C108.477 156.895 106.327 159.049 106.327 159.049L101.311 158.69C101.311 158.69 101.39 154.957 102.246 154.132C103.103 153.306 102.682 152.007 102.682 152.007C102.682 152.007 104.912 150.029 103.417 148.424C101.494 146.359 108.504 111.479 110.923 111.825C111.266 110.157 112.061 108.617 113.222 107.374C114.384 106.131 115.866 105.234 117.504 104.782L122.922 103.287L123.884 99.4634H131.512L132.841 101.976L138.641 104.598C139.733 103.054 140.549 101.427 145.023 100.899C145.023 100.899 157.077 89.9118 156.488 89.0539C155.9 88.1959 157.768 86.1874 157.768 86.1874C157.768 86.1874 159.364 85.6641 158.464 85.3848C157.563 85.1054 159.265 84.4595 159.265 84.4595C159.265 84.4595 160.842 84.0445 160.098 83.4981C159.355 82.9517 162.579 82.5928 162.579 82.5928L166.763 86.0127L165.917 87.4492C165.917 87.4492 166.433 89.4052 165.76 88.6911C165.087 87.977 164.961 90.0494 164.961 90.0494C164.961 90.0494 164.617 92.3186 162.579 93.0023C160.541 93.686 158.996 100.181 158.996 100.181C154.191 106.441 148.519 111.325 141.798 114.539C144.418 117.551 141.918 147.935 141.918 147.935Z" fill="#FF8800"/>
<path d="M127.13 97.2257C131.302 97.2257 134.685 93.8367 134.685 89.6563C134.685 85.4758 131.302 82.0869 127.13 82.0869C122.957 82.0869 119.574 85.4758 119.574 89.6563C119.574 93.8367 122.957 97.2257 127.13 97.2257Z" fill="#FFB6B6"/>
<path d="M119.306 90.4808C119.545 92.1256 120.944 94.4205 120.617 94.4205C120.289 94.4205 117.959 87.6398 120.289 87.1977C121.979 86.877 122.357 87.1583 123.936 86.4721L123.714 86.6823C124.759 87.4439 126.214 86.9744 127.407 86.4787C128.603 85.9862 130.055 85.5167 131.103 86.2751C131.762 86.7512 132.041 87.5785 132.45 88.2811C132.86 88.987 133.617 89.6534 134.397 89.4368C135.023 89.2627 135.383 88.5602 135.38 87.9101C135.377 87.2601 134.532 86.6417 134.816 86.0585C135.66 84.3301 134.901 83.152 133.063 82.3387C132.395 82.237 131.726 82.133 131.058 82.0268C131.408 81.5407 131.833 81.113 132.316 80.7596C132.112 80.235 131.759 79.7818 131.3 79.4562C130.766 79.1377 130.104 79.1607 129.485 79.1935C128.102 79.2658 126.72 79.338 125.339 79.4102C124.317 79.4627 123.258 79.5251 122.344 79.9946C121.203 80.5823 120.456 81.7281 119.912 82.8936C118.693 85.5135 118.886 87.6212 119.306 90.4808Z" fill="#2F2E41"/>
<path d="M87.8754 229.899L162.183 230C162.286 230 162.386 229.959 162.459 229.885C162.532 229.812 162.573 229.713 162.573 229.609C162.573 229.505 162.532 229.406 162.459 229.333C162.386 229.259 162.286 229.218 162.183 229.218L87.8754 229.117C87.7719 229.117 87.6727 229.158 87.5995 229.232C87.5263 229.305 87.4852 229.404 87.4852 229.508C87.4852 229.612 87.5263 229.711 87.5995 229.785C87.6727 229.858 87.7719 229.899 87.8754 229.899Z" fill="#CACACA"/>
<path d="M61.0002 195.824C61.1372 194.88 60.1511 193.956 58.7977 193.759C57.4443 193.561 56.2361 194.166 56.0991 195.109C55.9621 196.053 56.9482 196.977 58.3016 197.174C59.655 197.372 60.8632 196.767 61.0002 195.824Z" fill="#E6E6E6"/>
<path d="M77.1141 194.248C77.2511 193.305 76.2649 192.381 74.9115 192.183C73.5581 191.986 72.3499 192.591 72.2129 193.534C72.076 194.477 73.0621 195.402 74.4155 195.599C75.7689 195.796 76.9771 195.192 77.1141 194.248Z" fill="#3F3D56"/>
<path d="M56.5878 182.754C56.7247 181.811 55.7386 180.887 54.3852 180.689C53.0318 180.492 51.8236 181.097 51.6866 182.04C51.5496 182.983 52.5357 183.908 53.8892 184.105C55.2426 184.302 56.4508 183.698 56.5878 182.754Z" fill="#FF6584"/>
<path d="M49.5859 177.401C49.5924 176.535 49.1103 175.829 48.509 175.825C47.9077 175.82 47.415 176.519 47.4085 177.384C47.4019 178.25 47.8841 178.956 48.4854 178.961C49.0866 178.965 49.5794 178.267 49.5859 177.401Z" fill="#E6E6E6"/>
<path d="M47.2114 167.43C47.2179 166.564 46.7358 165.858 46.1345 165.853C45.5333 165.849 45.0405 166.547 45.034 167.413C45.0275 168.279 45.5096 168.985 46.1109 168.989C46.7122 168.994 47.2049 168.295 47.2114 167.43Z" fill="#3F3D56"/>
<path d="M65.6761 184.978C65.6827 184.112 65.2005 183.407 64.5993 183.402C63.998 183.398 63.5052 184.096 63.4987 184.962C63.4922 185.828 63.9743 186.533 64.5756 186.538C65.1769 186.543 65.6696 185.844 65.6761 184.978Z" fill="#E6E6E6"/>
<path d="M57.8892 188.873C57.8957 188.007 57.4136 187.302 56.8123 187.297C56.211 187.293 55.7183 187.991 55.7118 188.857C55.7052 189.723 56.1874 190.428 56.7886 190.433C57.3899 190.438 57.8827 189.739 57.8892 188.873Z" fill="#FF6584"/>
<path d="M68.7289 196.072C68.7354 195.206 68.2533 194.501 67.652 194.496C67.0507 194.492 66.558 195.19 66.5514 196.056C66.5449 196.922 67.0271 197.627 67.6283 197.632C68.2296 197.637 68.7223 196.938 68.7289 196.072Z" fill="#3F3D56"/>
<path d="M184.873 145.264C185.01 144.321 184.024 143.396 182.671 143.199C181.318 143.002 180.109 143.606 179.972 144.55C179.835 145.493 180.821 146.417 182.175 146.615C183.528 146.812 184.736 146.207 184.873 145.264Z" fill="#E6E6E6"/>
<path d="M200.987 143.689C201.124 142.746 200.138 141.821 198.785 141.624C197.431 141.427 196.223 142.031 196.086 142.975C195.949 143.918 196.935 144.842 198.289 145.04C199.642 145.237 200.85 144.632 200.987 143.689Z" fill="#3F3D56"/>
<path d="M180.461 132.195C180.598 131.252 179.612 130.327 178.258 130.13C176.905 129.932 175.697 130.537 175.56 131.48C175.423 132.424 176.409 133.348 177.762 133.545C179.116 133.743 180.324 133.138 180.461 132.195Z" fill="#FF6584"/>
<path d="M173.459 126.841C173.466 125.975 172.984 125.27 172.382 125.265C171.781 125.261 171.288 125.959 171.282 126.825C171.275 127.691 171.757 128.397 172.359 128.401C172.96 128.406 173.453 127.707 173.459 126.841Z" fill="#E6E6E6"/>
<path d="M171.085 116.87C171.091 116.004 170.609 115.299 170.008 115.294C169.406 115.29 168.914 115.988 168.907 116.854C168.901 117.72 169.383 118.425 169.984 118.43C170.585 118.434 171.078 117.736 171.085 116.87Z" fill="#3F3D56"/>
<path d="M189.549 134.419C189.556 133.553 189.074 132.847 188.472 132.843C187.871 132.838 187.378 133.536 187.372 134.402C187.365 135.268 187.848 135.974 188.449 135.978C189.05 135.983 189.543 135.285 189.549 134.419Z" fill="#E6E6E6"/>
<path d="M181.762 138.314C181.769 137.448 181.287 136.742 180.686 136.738C180.084 136.733 179.592 137.431 179.585 138.297C179.578 139.163 180.061 139.869 180.662 139.873C181.263 139.878 181.756 139.18 181.762 138.314Z" fill="#FF6584"/>
<path d="M192.602 145.513C192.609 144.647 192.127 143.941 191.525 143.937C190.924 143.932 190.431 144.631 190.425 145.497C190.418 146.362 190.9 147.068 191.502 147.073C192.103 147.077 192.596 146.379 192.602 145.513Z" fill="#3F3D56"/>
<path d="M124.903 51.6962C125.04 50.753 124.054 49.8284 122.701 49.6312C121.347 49.4339 120.139 50.0386 120.002 50.9818C119.865 51.925 120.851 52.8496 122.204 53.0469C123.558 53.2442 124.766 52.6395 124.903 51.6962Z" fill="white"/>
<path d="M141.017 50.121C141.154 49.1778 140.168 48.2533 138.814 48.056C137.461 47.8587 136.253 48.4634 136.116 49.4066C135.979 50.3499 136.965 51.2744 138.318 51.4717C139.672 51.669 140.88 51.0643 141.017 50.121Z" fill="#3F3D56"/>
<path d="M120.491 38.6269C120.628 37.6837 119.642 36.7591 118.288 36.5618C116.935 36.3645 115.726 36.9693 115.589 37.9125C115.453 38.8557 116.439 39.7803 117.792 39.9776C119.145 40.1748 120.354 39.5701 120.491 38.6269Z" fill="#FF6584"/>
<path d="M113.489 33.2736C113.495 32.4076 113.013 31.702 112.412 31.6974C111.811 31.6929 111.318 32.3911 111.311 33.2571C111.305 34.123 111.787 34.8286 112.388 34.8332C112.989 34.8378 113.482 34.1395 113.489 33.2736Z" fill="#E6E6E6"/>
<path d="M111.114 23.3024C111.121 22.4364 110.639 21.7308 110.037 21.7262C109.436 21.7217 108.943 22.4199 108.937 23.2859C108.93 24.1518 109.412 24.8575 110.014 24.862C110.615 24.8666 111.108 24.1683 111.114 23.3024Z" fill="#3F3D56"/>
<path d="M129.579 40.8509C129.586 39.985 129.103 39.2794 128.502 39.2748C127.901 39.2702 127.408 39.9685 127.402 40.8344C127.395 41.7004 127.877 42.406 128.478 42.4106C129.08 42.4151 129.572 41.7169 129.579 40.8509Z" fill="#E6E6E6"/>
<path d="M121.792 44.7462C121.799 43.8803 121.316 43.1746 120.715 43.1701C120.114 43.1655 119.621 43.8638 119.615 44.7297C119.608 45.5956 120.09 46.3013 120.692 46.3059C121.293 46.3104 121.786 45.6121 121.792 44.7462Z" fill="#FF6584"/>
<path d="M132.632 51.9452C132.638 51.0793 132.156 50.3736 131.555 50.3691C130.954 50.3645 130.461 51.0628 130.454 51.9287C130.448 52.7946 130.93 53.5003 131.531 53.5048C132.132 53.5094 132.625 52.8111 132.632 51.9452Z" fill="#3F3D56"/>
</g>
<defs>
<clipPath id="clip0_63_233">
<rect width="201" height="230" fill="white"/>
</clipPath>
</defs>
</svg>
