<svg width="309" height="254" viewBox="0 0 309 254" fill="none" xmlns="http://www.w3.org/2000/svg">
<g clip-path="url(#clip0_63_275)">
<path d="M41.6355 240.626C41.2811 240.642 40.9302 240.549 40.6303 240.359C40.3305 240.169 40.0963 239.891 39.9594 239.563C39.8225 239.235 39.7896 238.873 39.865 238.526C39.9405 238.179 40.1207 237.863 40.3813 237.622C40.4249 237.448 40.4562 237.323 40.4999 237.15C40.4842 237.112 40.4686 237.074 40.4528 237.036C40.0956 236.192 39.4972 235.471 38.7327 234.966C37.9682 234.461 37.0717 234.193 36.1557 234.197C35.2398 234.2 34.3452 234.474 33.5845 234.985C32.8237 235.496 32.2307 236.221 31.8799 237.068C30.4777 240.45 28.6926 243.838 28.253 247.413C28.0594 248.994 28.1411 250.596 28.4944 252.149C25.2011 244.955 23.491 237.135 23.48 229.221C23.4793 227.235 23.5895 225.251 23.81 223.277C23.9923 221.659 24.2452 220.053 24.5686 218.458C26.3337 209.804 30.1235 201.693 35.6267 194.791C38.2902 193.335 40.4442 191.097 41.7985 188.378C42.2891 187.401 42.6358 186.357 42.8279 185.28C42.5275 185.32 42.2221 185.344 41.9217 185.364C41.8281 185.369 41.7295 185.374 41.6359 185.379L41.6006 185.381C41.2704 185.395 40.943 185.314 40.6577 185.147C40.3724 184.98 40.1415 184.734 39.9927 184.438C39.8439 184.142 39.7836 183.81 39.819 183.481C39.8544 183.152 39.9841 182.84 40.1924 182.583C40.3221 182.423 40.452 182.263 40.5819 182.104C40.7789 181.857 40.9808 181.615 41.1778 181.369C41.2006 181.345 41.222 181.32 41.2419 181.295C41.4685 181.013 41.695 180.737 41.9217 180.456C41.5081 179.813 40.9518 179.275 40.2962 178.883C38.0255 177.551 34.8927 178.473 33.2525 180.53C31.6073 182.587 31.297 185.473 31.8684 188.043C32.4302 190.229 33.3597 192.305 34.6169 194.179C34.4937 194.337 34.3657 194.49 34.2425 194.648C31.9915 197.546 30.0296 200.659 28.3848 203.941C28.7848 200.264 28.3074 196.545 26.992 193.089C25.6588 189.868 23.1599 187.155 20.9593 184.371C18.3161 181.026 12.8959 182.486 12.4302 186.726C12.4257 186.767 12.4213 186.808 12.417 186.849C12.7439 187.034 13.0638 187.23 13.3769 187.437C13.7701 187.7 14.0749 188.076 14.2511 188.516C14.4274 188.955 14.467 189.438 14.3647 189.9C14.2624 190.363 14.0229 190.783 13.6778 191.107C13.3327 191.431 12.8979 191.643 12.4304 191.715L12.3826 191.722C12.499 192.902 12.7048 194.071 12.9982 195.22C13.8485 198.426 15.351 201.422 17.4115 204.019C19.472 206.617 22.0462 208.76 24.9725 210.314C25.1646 210.413 25.3518 210.511 25.5439 210.605C23.8915 215.295 22.855 220.18 22.4605 225.137C22.2371 228.062 22.2503 231 22.4999 233.922L22.4851 233.819C21.8546 230.569 20.1234 227.637 17.584 225.517C13.8124 222.414 8.48386 221.272 4.41496 218.778C3.98253 218.5 3.47972 218.351 2.96584 218.35C2.45196 218.349 1.94845 218.495 1.51467 218.771C1.0809 219.046 0.73495 219.441 0.517655 219.907C0.300359 220.374 0.220769 220.892 0.288269 221.403C0.29372 221.439 0.299276 221.475 0.304918 221.511C0.911467 221.759 1.50203 222.044 2.07319 222.365C2.40005 222.549 2.72002 222.746 3.03306 222.953C3.42634 223.216 3.73106 223.592 3.90732 224.031C4.08359 224.471 4.12315 224.954 4.02084 225.416C3.91854 225.879 3.67913 226.299 3.33398 226.623C2.98884 226.947 2.55406 227.159 2.08661 227.231L2.03871 227.238C2.00422 227.243 1.97468 227.248 1.94025 227.253C2.97662 229.731 4.4312 232.012 6.2403 233.996C8.47514 236.398 11.1762 238.317 14.178 239.636C17.1797 240.955 20.4189 241.646 23.6968 241.667H23.7017C24.5915 245.539 25.8808 249.308 27.5487 252.913H41.2912C41.3405 252.761 41.3848 252.603 41.4291 252.45C40.1571 252.53 38.88 252.454 37.6265 252.223C38.6461 250.97 39.6657 249.707 40.6853 248.454C40.7081 248.431 40.7295 248.406 40.7494 248.38C41.2666 247.739 41.7887 247.103 42.3059 246.461L42.3062 246.461C42.3337 244.495 42.1085 242.534 41.636 240.626L41.6355 240.626Z" fill="#F2F2F2"/>
<path d="M267.266 240.626C267.621 240.642 267.972 240.549 268.272 240.359C268.571 240.169 268.806 239.891 268.943 239.563C269.079 239.235 269.112 238.873 269.037 238.526C268.961 238.179 268.781 237.863 268.521 237.622C268.477 237.448 268.446 237.323 268.402 237.15C268.418 237.112 268.433 237.074 268.449 237.036C268.806 236.192 269.405 235.471 270.169 234.966C270.934 234.461 271.83 234.193 272.746 234.197C273.662 234.2 274.557 234.474 275.317 234.985C276.078 235.496 276.671 236.221 277.022 237.068C278.424 240.45 280.209 243.838 280.649 247.413C280.843 248.994 280.761 250.596 280.408 252.149C283.701 244.955 285.411 237.135 285.422 229.221C285.423 227.235 285.312 225.251 285.092 223.277C284.91 221.659 284.657 220.053 284.333 218.458C282.568 209.804 278.778 201.693 273.275 194.791C270.612 193.335 268.458 191.097 267.103 188.378C266.613 187.401 266.266 186.357 266.074 185.28C266.374 185.32 266.68 185.344 266.98 185.364C267.074 185.369 267.172 185.374 267.266 185.379L267.301 185.381C267.632 185.395 267.959 185.314 268.244 185.147C268.53 184.98 268.76 184.734 268.909 184.438C269.058 184.143 269.118 183.81 269.083 183.481C269.047 183.152 268.918 182.84 268.709 182.583C268.58 182.423 268.45 182.263 268.32 182.104C268.123 181.857 267.921 181.615 267.724 181.369C267.701 181.345 267.68 181.32 267.66 181.295C267.433 181.013 267.207 180.737 266.98 180.456C267.394 179.813 267.95 179.275 268.606 178.883C270.876 177.551 274.009 178.473 275.649 180.53C277.295 182.587 277.605 185.473 277.034 188.043C276.472 190.229 275.542 192.305 274.285 194.179C274.408 194.337 274.536 194.49 274.659 194.648C276.91 197.546 278.872 200.659 280.517 203.941C280.117 200.264 280.595 196.545 281.91 193.089C283.243 189.868 285.742 187.155 287.943 184.371C290.586 181.026 296.006 182.486 296.472 186.726C296.476 186.767 296.481 186.808 296.485 186.849C296.158 187.034 295.838 187.23 295.525 187.437C295.132 187.7 294.827 188.076 294.651 188.516C294.475 188.955 294.435 189.438 294.537 189.9C294.64 190.363 294.879 190.783 295.224 191.107C295.569 191.431 296.004 191.643 296.472 191.715L296.519 191.722C296.403 192.902 296.197 194.071 295.904 195.22C295.053 198.426 293.551 201.422 291.49 204.019C289.43 206.617 286.856 208.76 283.929 210.314C283.737 210.413 283.55 210.511 283.358 210.605C285.011 215.295 286.047 220.18 286.442 225.137C286.665 228.062 286.652 231 286.402 233.922L286.417 233.819C287.047 230.569 288.779 227.637 291.318 225.517C295.09 222.414 300.418 221.272 304.487 218.778C304.919 218.5 305.422 218.351 305.936 218.35C306.45 218.349 306.954 218.495 307.387 218.771C307.821 219.046 308.167 219.441 308.384 219.907C308.602 220.374 308.681 220.892 308.614 221.403C308.608 221.439 308.603 221.475 308.597 221.511C307.991 221.759 307.4 222.044 306.829 222.365C306.502 222.549 306.182 222.745 305.869 222.953C305.476 223.216 305.171 223.592 304.995 224.031C304.818 224.471 304.779 224.954 304.881 225.416C304.983 225.878 305.223 226.299 305.568 226.623C305.913 226.947 306.348 227.159 306.815 227.231L306.863 227.238C306.898 227.243 306.927 227.248 306.962 227.253C305.925 229.731 304.471 232.012 302.662 233.996C300.427 236.398 297.726 238.317 294.724 239.636C291.722 240.955 288.483 241.646 285.205 241.667H285.2C284.31 245.539 283.021 249.308 281.353 252.913H267.611C267.561 252.76 267.517 252.603 267.473 252.45C268.745 252.53 270.022 252.454 271.275 252.223C270.256 250.97 269.236 249.707 268.217 248.454C268.194 248.431 268.172 248.406 268.153 248.38C267.635 247.739 267.113 247.103 266.596 246.461L266.596 246.461C266.568 244.495 266.793 242.534 267.266 240.626L267.266 240.626Z" fill="#F2F2F2"/>
<path d="M97.0977 246.76H100.425L102.008 233.907H97.0977V246.76Z" fill="#9E616A"/>
<path d="M96.0117 244.477L101.327 244.16V246.44L106.381 249.936C106.631 250.108 106.819 250.356 106.917 250.643C107.016 250.931 107.021 251.242 106.931 251.532C106.84 251.822 106.66 252.076 106.416 252.256C106.171 252.436 105.876 252.533 105.573 252.533H99.2441L98.1534 250.277L97.7275 252.533H95.3414L96.0117 244.477Z" fill="#2F2E41"/>
<path d="M55.397 243.929L58.4883 245.161L64.7053 233.807L60.1431 231.988L55.397 243.929Z" fill="#9E616A"/>
<path d="M55.2308 241.406L60.2867 243.08L59.4445 245.199L62.8489 250.318C63.0171 250.571 63.1002 250.871 63.0861 251.174C63.0719 251.478 62.9613 251.769 62.7703 252.005C62.5793 252.241 62.318 252.41 62.0245 252.486C61.731 252.563 61.4207 252.544 61.1388 252.431L55.2592 250.088L55.0789 247.588L53.85 249.526L51.6332 248.642L55.2308 241.406Z" fill="#2F2E41"/>
<path d="M90.3909 208.517L84.8427 182.588L76.1791 211.397L62.4607 238.716L62.388 238.861L58.0425 236.517C57.4292 225.425 58.8858 215.03 64.2131 205.941L66.7357 180.993C66.813 180.14 68.6947 160.128 74.6531 156.579L76.3981 152.594L93.7536 148.302L93.8167 148.373C95.4856 150.251 96.588 152.565 96.9959 155.046L102.182 186.508L102.185 186.526L100.794 208.474L102.696 240.855H95.814C91.5564 232.833 89.7487 222.053 90.3909 208.517Z" fill="#2F2E41"/>
<path d="M175.154 102.713C175.154 110.082 186.081 123.024 188.478 116.056C191.412 107.526 197.672 102.119 201.802 102.713C209.086 103.761 195.837 89.3694 188.478 89.3694C184.944 89.3694 181.555 90.7752 179.056 93.2776C176.558 95.7799 175.154 99.1739 175.154 102.713Z" fill="#E6E6E6"/>
<path d="M172.355 60.9247C170.627 68.088 178.32 74.2681 185.679 74.2681C187.429 74.2681 189.161 73.923 190.778 73.2524C192.395 72.5819 193.863 71.599 195.101 70.3599C196.338 69.1209 197.319 67.6499 197.989 66.031C198.659 64.4121 199.003 62.677 199.003 60.9247C199.003 53.5554 189.085 54.1139 185.679 47.5813C181.78 40.103 176.069 45.5268 172.355 60.9247Z" fill="#E6E6E6"/>
<path d="M110.782 60.3641C110.782 63.903 112.186 67.2969 114.684 69.7993C117.183 72.3017 120.572 73.7075 124.106 73.7075C131.465 73.7075 137.644 67.7303 137.43 60.3641C136.982 44.9327 131.013 38.8859 124.106 47.0207C119.339 52.635 110.782 52.9947 110.782 60.3641Z" fill="#E6E6E6"/>
<path d="M109.662 102.713C103.444 100.021 114.244 113.817 122.987 116.056C130.116 117.882 136.311 110.082 136.311 102.713C136.311 100.961 135.966 99.2254 135.296 97.6065C134.627 95.9876 133.645 94.5166 132.408 93.2776C131.171 92.0385 129.702 91.0557 128.086 90.3851C126.469 89.7145 124.736 89.3694 122.987 89.3694C115.628 89.3694 116.417 105.637 109.662 102.713Z" fill="#E6E6E6"/>
<path d="M259.595 16.5407H42.0015C41.7752 16.5359 41.5598 16.4425 41.4014 16.2805C41.2431 16.1185 41.1544 15.9008 41.1544 15.6742C41.1544 15.4475 41.2431 15.2298 41.4014 15.0678C41.5598 14.9059 41.7752 14.8124 42.0015 14.8076H259.595C259.822 14.8124 260.037 14.9059 260.195 15.0678C260.354 15.2298 260.442 15.4475 260.442 15.6742C260.442 15.9008 260.354 16.1185 260.195 16.2805C260.037 16.4425 259.822 16.5359 259.595 16.5407Z" fill="#CACACA"/>
<path d="M56.8134 10.3833C59.6141 10.3833 61.8845 8.05888 61.8845 5.19163C61.8845 2.32437 59.6141 0 56.8134 0C54.0127 0 51.7423 2.32437 51.7423 5.19163C51.7423 8.05888 54.0127 10.3833 56.8134 10.3833Z" fill="#3F3D56"/>
<path d="M74.3318 10.3833C77.1325 10.3833 79.4029 8.05888 79.4029 5.19163C79.4029 2.32437 77.1325 0 74.3318 0C71.5311 0 69.2607 2.32437 69.2607 5.19163C69.2607 8.05888 71.5311 10.3833 74.3318 10.3833Z" fill="#3F3D56"/>
<path d="M91.8502 10.3833C94.6509 10.3833 96.9213 8.05888 96.9213 5.19163C96.9213 2.32437 94.6509 0 91.8502 0C89.0495 0 86.7791 2.32437 86.7791 5.19163C86.7791 8.05888 89.0495 10.3833 91.8502 10.3833Z" fill="#3F3D56"/>
<path d="M249.048 1.28687H236.604C236.357 1.29175 236.122 1.39332 235.949 1.56975C235.776 1.74618 235.68 1.9834 235.68 2.23048C235.68 2.47756 235.776 2.71478 235.949 2.89121C236.122 3.06763 236.357 3.1692 236.604 3.17409H249.048C249.294 3.1692 249.529 3.06763 249.702 2.89121C249.875 2.71478 249.971 2.47756 249.971 2.23048C249.971 1.9834 249.875 1.74618 249.702 1.56975C249.529 1.39332 249.294 1.29175 249.048 1.28687H249.048Z" fill="#3F3D56"/>
<path d="M249.048 4.82886H236.604C236.357 4.83378 236.122 4.93535 235.949 5.11178C235.777 5.2882 235.68 5.52541 235.68 5.77247C235.68 6.01952 235.777 6.25673 235.949 6.43315C236.122 6.60958 236.357 6.71115 236.604 6.71607H249.048C249.294 6.71115 249.529 6.60958 249.702 6.43315C249.875 6.25673 249.971 6.01952 249.971 5.77247C249.971 5.52541 249.875 5.2882 249.702 5.11178C249.529 4.93535 249.294 4.83378 249.048 4.82886H249.048Z" fill="#3F3D56"/>
<path d="M249.048 8.36621H236.604C236.357 8.37113 236.122 8.47271 235.949 8.64913C235.777 8.82556 235.68 9.06276 235.68 9.30982C235.68 9.55688 235.777 9.79408 235.949 9.97051C236.122 10.1469 236.357 10.2485 236.604 10.2534H249.048C249.294 10.2485 249.529 10.1469 249.702 9.97051C249.875 9.79408 249.971 9.55688 249.971 9.30982C249.971 9.06276 249.875 8.82556 249.702 8.64913C249.529 8.47271 249.294 8.37113 249.048 8.36621H249.048Z" fill="#3F3D56"/>
<path d="M186.987 54.8687H169.165C168.794 54.8686 168.427 54.9417 168.085 55.0837C167.743 55.2256 167.432 55.4337 167.17 55.6959C166.908 55.9582 166.7 56.2696 166.559 56.6123C166.417 56.955 166.344 57.3223 166.344 57.6933V75.5416C166.344 76.2907 166.641 77.0092 167.17 77.5389C167.699 78.0687 168.416 78.3662 169.165 78.3662H186.987C187.735 78.3662 188.453 78.0687 188.981 77.5389C189.51 77.0092 189.808 76.2907 189.808 75.5416V57.6933C189.808 56.9441 189.51 56.2257 188.981 55.6959C188.453 55.1662 187.735 54.8686 186.987 54.8687ZM183.641 60.8945H181.597C180.201 60.8945 179.93 61.5561 179.93 62.5331V64.6046H183.258L182.825 67.8572H179.923V76.3385C178.682 76.5717 177.409 76.5687 176.169 76.3296V67.8572H173.508V64.6046H176.219V62.1993C176.219 59.3238 178.213 57.7532 180.782 57.7532C182.017 57.7532 183.338 57.846 183.641 57.8892V60.8945Z" fill="#4245DC"/>
<path d="M142.406 54.8687H124.584C123.836 54.8686 123.118 55.1662 122.589 55.696C122.06 56.2257 121.763 56.9441 121.763 57.6933V75.5416C121.763 76.2907 122.06 77.0092 122.589 77.5389C123.118 78.0687 123.835 78.3662 124.584 78.3662H142.406C143.154 78.3662 143.872 78.0687 144.401 77.5389C144.929 77.0092 145.227 76.2907 145.227 75.5416V57.6933C145.227 56.9441 144.929 56.2257 144.401 55.6959C143.872 55.1662 143.154 54.8686 142.406 54.8687ZM133.495 72.8835C132.257 72.8835 131.048 72.516 130.019 71.8275C128.99 71.1389 128.188 70.1603 127.714 69.0153C127.24 67.8704 127.117 66.6105 127.358 65.395C127.599 64.1795 128.195 63.063 129.07 62.1867C129.945 61.3104 131.06 60.7136 132.274 60.4718C133.488 60.23 134.746 60.3541 135.889 60.8284C137.033 61.3027 138.01 62.1058 138.697 63.1362C139.385 64.1667 139.752 65.3781 139.752 66.6174C139.752 68.2793 139.093 69.8731 137.919 71.0482C136.746 72.2233 135.154 72.8835 133.495 72.8835H133.495ZM140.534 60.3514C140.225 60.3514 139.922 60.2596 139.665 60.0874C139.408 59.9153 139.207 59.6706 139.089 59.3844C138.97 59.0981 138.939 58.7832 139 58.4793C139.06 58.1754 139.209 57.8963 139.428 57.6772C139.647 57.4581 139.925 57.3089 140.229 57.2485C140.532 57.1881 140.847 57.2191 141.132 57.3376C141.418 57.4562 141.663 57.657 141.835 57.9146C142.006 58.1722 142.098 58.4751 142.098 58.7849C142.098 59.2004 141.933 59.5988 141.64 59.8926C141.347 60.1864 140.949 60.3514 140.534 60.3514H140.534Z" fill="#4245DC"/>
<path d="M191.281 97.025C191.789 97.0286 192.29 97.1437 192.749 97.3623C193.208 97.5809 193.614 97.8976 193.937 98.2902C194.261 98.6827 194.495 99.1415 194.622 99.6343C194.749 100.127 194.767 100.642 194.674 101.142L201.333 105.481L199.687 110.177L190.369 103.917C189.54 103.705 188.818 103.196 188.338 102.486C187.859 101.776 187.656 100.915 187.768 100.066C187.881 99.216 188.3 98.4373 188.948 97.8769C189.595 97.3165 190.425 97.0134 191.281 97.025Z" fill="#FFB6B6"/>
<path d="M193.653 108.435L198.405 102.94L204.547 105.792L217.096 115.794C218.741 115.986 231.225 117.6 230.996 122.191C230.99 122.728 230.869 123.257 230.64 123.742C230.41 124.227 230.079 124.656 229.669 125.001C227.698 126.63 224.284 126.168 224.156 126.149L215.986 125.739C215.559 125.843 211.124 126.863 208.776 125.403C208.064 124.96 193.653 108.435 193.653 108.435Z" fill="#3F3D56"/>
<path d="M207.359 248.797L203.466 248.796L201.615 233.76H207.36L207.359 248.797Z" fill="#FFB6B6"/>
<path d="M208.352 252.576L195.8 252.575V252.416C195.8 251.119 196.315 249.874 197.231 248.957C198.147 248.039 199.39 247.524 200.686 247.524H200.686L202.979 245.782L207.256 247.524L208.352 247.524L208.352 252.576Z" fill="#2F2E41"/>
<path d="M250.084 245.746L246.332 246.784L240.549 232.784L246.087 231.252L250.084 245.746Z" fill="#FFB6B6"/>
<path d="M252.046 249.123L239.947 252.47L239.905 252.317C239.56 251.066 239.726 249.729 240.365 248.6C241.004 247.472 242.065 246.644 243.313 246.298L243.314 246.298L245.061 244.008L249.647 244.546L250.703 244.254L252.046 249.123Z" fill="#2F2E41"/>
<path d="M207.531 157.8L236.944 159.302L236.954 159.329C238.716 164.23 239.127 169.516 238.145 174.632L239.045 182.146L243.548 205.591L249.55 235.649C249.55 235.649 257.354 237.753 247.149 241.36C236.944 244.966 239.045 242.862 240.546 240.157C242.047 237.452 233.193 206.944 233.193 206.944L222.388 182.597L211.883 207.845L210.682 235.799C210.682 235.799 213.834 239.556 204.829 241.059C195.825 242.562 196.275 239.706 198.376 237.602C200.477 235.498 202.278 207.545 202.278 207.545L204.379 181.094C204.379 181.094 203.779 165.765 207.531 157.8Z" fill="#2F2E41"/>
<path d="M236.292 123.46L233.927 117.248L226.311 109.736L216.666 108.978L209.577 115.334L207.572 121.656C210.202 133.847 210.148 145.075 206.423 155.953C206.158 156.705 206.06 157.506 206.136 158.3C206.213 159.094 206.461 159.861 206.864 160.549C207.266 161.237 207.814 161.828 208.469 162.282C209.123 162.736 209.869 163.041 210.653 163.177C221.58 165.016 241.927 167.773 240.526 162.524C238.672 155.581 232.222 140.635 234.611 132.733C235.48 129.987 236.028 127.149 236.242 124.277L236.292 123.46Z" fill="#3F3D56"/>
<path d="M219.867 106.554C224.621 106.554 228.475 102.694 228.475 97.9328C228.475 93.1717 224.621 89.312 219.867 89.312C215.112 89.312 211.258 93.1717 211.258 97.9328C211.258 102.694 215.112 106.554 219.867 106.554Z" fill="#FFB6B6"/>
<path d="M217.517 106.101L224.079 105.765C224.92 105.722 225.838 105.648 226.449 105.069C226.778 104.711 227.031 104.29 227.193 103.831C227.8 102.42 228.406 101.009 228.997 99.5913C229.815 97.6303 230.618 95.5598 230.409 93.445C230.36 92.4792 229.956 91.5658 229.274 90.8811C228.926 90.5512 228.479 90.346 228.002 90.2976C227.525 90.2492 227.046 90.3604 226.639 90.6137C226.538 89.9448 226.286 89.3077 225.903 88.7505C225.52 88.1934 225.015 87.7308 224.427 87.3977C223.24 86.7407 221.884 86.4528 220.532 86.5707C218.571 86.6973 216.699 87.4363 215.179 88.6837C214.751 89.0787 214.295 89.441 213.813 89.7675C213.571 89.9297 213.298 90.0408 213.012 90.0939C212.725 90.147 212.431 90.141 212.146 90.0763C211.865 90.001 211.62 89.8261 211.457 89.5841C211.295 89.342 211.225 89.0492 211.261 88.7596C210.799 89.1056 210.482 89.6117 210.372 90.179C210.262 90.7463 210.368 91.3342 210.667 91.828C210.327 91.9709 209.955 92.0232 209.588 91.9797C209.221 91.9363 208.872 91.7986 208.574 91.58C208.255 91.7386 207.972 91.9623 207.745 92.2366C207.517 92.5109 207.348 92.8298 207.251 93.173C207.153 93.5161 207.128 93.8759 207.177 94.2293C207.226 94.5828 207.349 94.922 207.536 95.2253C207.724 95.5287 207.973 95.7894 208.267 95.9908C208.561 96.1923 208.894 96.33 209.244 96.3952C209.595 96.4604 209.955 96.4516 210.301 96.3693C210.648 96.2871 210.974 96.1332 211.258 95.9176C211.656 96.4763 211.508 97.2354 211.456 97.9198C211.404 98.6042 211.587 99.4547 212.246 99.6439C213.137 99.8996 213.858 98.6986 214.785 98.7114C215.013 98.73 215.234 98.8048 215.426 98.9292C215.619 99.0536 215.778 99.2237 215.89 99.4244C216.108 99.8277 216.257 100.265 216.332 100.717L217.518 106.063" fill="#2F2E41"/>
<path d="M173.565 119.817C170.287 119.819 167.079 118.867 164.332 117.076L162.95 116.176L164.588 116.358C165.018 116.406 165.48 116.434 165.962 116.441C168.171 116.443 170.334 115.806 172.191 114.608C171.087 114.369 170.066 113.845 169.226 113.089C168.387 112.332 167.76 111.37 167.406 110.296L167.201 109.663L167.853 109.791C168.15 109.849 168.45 109.883 168.752 109.892C167.718 109.359 166.851 108.552 166.244 107.559C165.637 106.566 165.315 105.424 165.312 104.26V103.589L165.895 103.847C166.241 104.042 166.607 104.198 166.987 104.313C166.088 103.302 165.53 102.034 165.392 100.688C165.253 99.3418 165.542 97.9863 166.217 96.8138L166.502 96.3216L166.859 96.7634C169.463 99.9898 173.193 102.105 177.296 102.679C177.408 102.696 177.523 102.687 177.632 102.654C177.741 102.622 177.841 102.566 177.926 102.491C178.014 102.415 178.084 102.321 178.132 102.216C178.179 102.111 178.204 101.996 178.204 101.881C178.194 100.629 178.557 99.402 179.246 98.3573C179.936 97.3126 180.92 96.4971 182.073 96.0147C183.227 95.5323 184.498 95.4048 185.724 95.6485C186.951 95.8923 188.077 96.4962 188.959 97.3833C190.166 97.1194 191.324 96.6642 192.388 96.0348L193.286 95.5024L192.958 96.4945C192.655 97.4148 192.147 98.2539 191.471 98.9479C192.07 98.7917 192.656 98.5879 193.223 98.3387L194.44 97.8032L193.707 98.9131C192.93 100.091 191.96 101.128 190.838 101.981V102.547C190.838 111.036 184.39 119.817 173.6 119.817L173.565 119.817Z" fill="#4245DC"/>
<path d="M181.295 113.772C181.803 113.752 182.309 113.842 182.778 114.039C183.247 114.235 183.667 114.532 184.009 114.908C184.351 115.284 184.607 115.731 184.758 116.217C184.909 116.704 184.951 117.217 184.883 117.721L191.743 121.734L190.324 126.503L180.716 120.7C179.878 120.529 179.131 120.055 178.618 119.369C178.105 118.684 177.861 117.833 177.933 116.979C178.004 116.125 178.386 115.327 179.005 114.736C179.625 114.145 180.44 113.802 181.295 113.772V113.772Z" fill="#FFB6B6"/>
<path d="M189.372 128.746L184.249 123.194L187.801 117.876L191.629 121.092L195.814 122.095L201.72 124.337C202.542 122.897 208.921 112.03 213.048 114.043C213.539 114.259 213.977 114.578 214.333 114.979C214.689 115.381 214.953 115.854 215.109 116.368C215.832 118.822 214.068 121.786 214 121.896L210.42 129.261C210.347 129.696 209.544 134.181 207.282 135.771C206.962 136.005 206.598 136.17 206.211 136.256C205.824 136.341 205.424 136.345 205.035 136.268C198.006 134.937 193.054 132.878 190.526 130.259C190.081 129.805 189.693 129.296 189.372 128.746Z" fill="#3F3D56"/>
<path d="M98.2332 107.279C97.4445 105.58 98.6962 103.684 99.1429 101.855C99.9764 98.4421 97.6278 94.7474 94.4444 93.5649C91.261 92.3824 87.6027 93.3707 84.868 95.4399C82.1873 97.4683 80.3028 98.4239 78.4562 101.29C77.837 102.251 77.1812 105.235 77.0641 106.386C76.9469 107.537 77.5415 108.856 78.6257 109.109C78.5219 109.314 78.4762 109.544 78.4938 109.773C78.5114 110.003 78.5915 110.223 78.7255 110.41C78.8594 110.598 79.042 110.744 79.2534 110.835C79.4649 110.925 79.697 110.956 79.9245 110.923C81.9997 110.522 85.8111 111.625 85.8111 111.625C89.3647 111.829 92.9182 112.032 96.4718 112.236C97.3823 112.288 98.3272 112.336 99.1453 111.832C99.3716 111.699 99.5666 111.519 99.7168 111.304C99.867 111.089 99.9689 110.843 100.015 110.585C100.223 109.237 98.7768 108.45 98.2332 107.279Z" fill="#2F2E41"/>
<path d="M100.917 122.143L100.139 127.327L98.9059 135.539L98.6969 138.582L97.1623 160.882L92.9359 164.138C90.4888 166.023 87.4344 166.94 84.3553 166.714C81.2763 166.488 78.3882 165.134 76.2421 162.911L71.1098 160.437C73.8604 157.727 73.3489 145.168 73.3489 145.168L73.318 120.5L80.275 118.157L82.5667 113.639H90.7876L92.8429 118.442L96.5732 120.15L98.2721 120.932L100.917 122.143Z" fill="#E6E6E6"/>
<path d="M87.0167 111.322C90.8556 111.322 93.9676 108.206 93.9676 104.362C93.9676 100.517 90.8556 97.4006 87.0167 97.4006C83.1779 97.4006 80.0658 100.517 80.0658 104.362C80.0658 108.206 83.1779 111.322 87.0167 111.322Z" fill="#9E616A"/>
<path d="M83.0454 102.178C81.2091 102.181 79.4168 101.615 77.9146 100.557L77.8644 100.522C77.8644 99.6326 78.0393 98.7522 78.3791 97.9307C78.7189 97.1092 79.2169 96.3628 79.8447 95.7341C80.4725 95.1054 81.2179 94.6066 82.0381 94.2664C82.8584 93.9261 83.7376 93.751 84.6255 93.751H87.3853C88.2673 93.752 89.1405 93.9272 89.9548 94.2666C90.7691 94.6059 91.5086 95.1028 92.131 95.7288C92.7533 96.3547 93.2462 97.0975 93.5815 97.9144C93.9168 98.7314 94.088 99.6066 94.0851 100.49C94.0794 100.893 93.9167 101.278 93.6317 101.563C93.3468 101.848 92.962 102.01 92.5594 102.015L83.204 102.177C83.1511 102.178 83.0981 102.178 83.0454 102.178Z" fill="#2F2E41"/>
<path d="M103.392 136.454L97.0958 136.505L96.6331 147.728L91.5175 154C90.8952 154.105 90.3139 154.38 89.8379 154.795C89.362 155.21 89.0098 155.749 88.8203 156.351C88.6308 156.954 88.6114 157.598 88.7643 158.211C88.9171 158.824 89.2362 159.383 89.6863 159.826C90.1364 160.269 90.7 160.579 91.3149 160.721C91.9297 160.863 92.5719 160.833 93.1705 160.633C93.7691 160.432 94.3007 160.07 94.7067 159.586C95.1128 159.103 95.3773 158.516 95.4713 157.891L102.518 148.108L103.392 136.454Z" fill="#9E616A"/>
<path d="M70.1937 136.789L63.7395 133.768L56.6918 142.505L48.852 144.491C48.2898 144.204 47.6592 144.078 47.0301 144.128C46.4009 144.177 45.7976 144.399 45.2869 144.771C44.7761 145.142 44.3776 145.647 44.1356 146.231C43.8936 146.814 43.8174 147.454 43.9154 148.078C44.0134 148.702 44.2818 149.287 44.691 149.769C45.1002 150.25 45.6342 150.608 46.2341 150.804C46.834 151.001 47.4763 151.027 48.0902 150.881C48.7042 150.734 49.2657 150.421 49.7129 149.975L61.1929 146.322L70.1937 136.789Z" fill="#9E616A"/>
<path d="M90.4947 110.785L92.9012 107.779C93.161 107.515 93.3302 107.176 93.384 106.809C93.3967 106.442 93.0509 106.048 92.7021 106.163C92.3785 106.27 90.5133 101.591 90.1725 101.592C89.8193 101.593 89.704 101.121 89.6995 100.767C89.6825 99.4268 90.7705 100.866 91.1302 99.5749C91.4899 98.2837 92.892 99.3939 94.1004 98.8172C95.3088 98.2405 96.9507 98.5025 97.6977 99.6148C98.2516 100.44 98.2311 101.511 98.1576 102.502C97.987 104.803 97.6414 107.086 97.1238 109.334C96.9967 109.886 96.8074 110.503 96.2994 110.752C96.0198 110.863 95.7184 110.908 95.4186 110.884L91.7133 110.866" fill="#2F2E41"/>
<path d="M96.2683 97.8597C98.1601 97.8597 99.6937 96.3239 99.6937 94.4294C99.6937 92.5348 98.1601 90.999 96.2683 90.999C94.3765 90.999 92.8429 92.5348 92.8429 94.4294C92.8429 96.3239 94.3765 97.8597 96.2683 97.8597Z" fill="#2F2E41"/>
<path d="M103.972 136.345C103.602 136.99 102.814 137.247 102.095 137.446C101.122 137.717 100.838 137.992 99.865 138.263C99.4779 138.372 99.0874 138.482 98.6969 138.582C98.0559 138.754 97.405 138.889 96.7479 138.983C96.1964 139.062 95.5456 139.062 95.1859 138.633C94.9473 138.265 94.8511 137.822 94.9153 137.388C95.0557 132.119 95.1973 126.85 95.34 121.581L95.638 121.684C95.7722 121.595 95.9118 121.515 96.056 121.444C96.7416 121.094 97.5027 120.918 98.2721 120.932C98.7124 120.936 99.1498 121.004 99.5704 121.135C100.223 121.342 100.823 121.69 101.328 122.153C101.834 122.616 102.232 123.184 102.496 123.817C102.837 124.773 103 125.784 102.975 126.798C102.979 126.953 102.979 127.107 102.982 127.261C103.003 128.579 102.335 129.896 102.355 131.213C102.34 131.584 102.391 131.955 102.506 132.308C102.643 132.657 102.91 132.949 103.013 133.313C103.116 133.673 102.948 134.167 102.574 134.194C102.838 134.166 103.105 134.212 103.344 134.326C103.584 134.44 103.787 134.618 103.932 134.84C104.076 135.063 104.157 135.322 104.164 135.587C104.171 135.853 104.105 136.115 103.972 136.345V136.345Z" fill="#E6E6E6"/>
<path d="M73.3468 120.53C74.0318 120.571 74.6992 120.763 75.3015 121.093C75.9037 121.422 76.426 121.881 76.8309 122.435C77.2359 122.99 77.5135 123.628 77.6441 124.302C77.7746 124.977 77.7548 125.672 77.5862 126.338C77.228 127.451 76.6652 128.487 75.9268 129.393L73.6245 132.602C73.3909 132.889 73.2112 133.217 73.0941 133.569C72.9972 133.932 73.0355 134.327 72.9028 134.679C72.7701 135.032 72.3429 135.327 72.0255 135.125C72.2541 135.26 72.441 135.455 72.5656 135.69C72.6902 135.924 72.7477 136.189 72.7317 136.454C72.7157 136.719 72.6269 136.974 72.475 137.192C72.3231 137.41 72.114 137.581 71.8709 137.688C71.1878 137.986 70.403 137.72 69.7069 137.453L66.8796 136.369C65.8741 136.01 64.8943 135.582 63.947 135.089C63.4576 134.82 62.9352 134.433 62.9004 133.875C62.8733 133.441 63.2401 133.107 63.424 132.713C65.7266 127.776 69.1125 123.847 73.3181 120.5L73.3468 120.53Z" fill="#E6E6E6"/>
<path d="M76.6546 150.248C76.6546 147.488 74.6231 145.264 72.0821 145.264C68.6788 145.1 65.2167 145.041 61.6763 145.041H60.5724C57.0384 145.041 53.5633 145.1 50.1666 145.264C47.6647 145.264 45.6332 147.494 45.6332 150.261C45.4764 152.453 45.4111 154.638 45.4176 156.803C45.4242 158.968 45.4764 161.179 45.6267 163.345C45.6267 166.112 47.6582 168.356 50.16 168.356C53.7266 168.519 57.3912 168.591 61.1145 168.591C64.8379 168.591 68.4959 168.526 72.0755 168.356C74.5839 168.356 76.6481 166.112 76.6481 163.345C76.7918 161.153 76.8636 158.968 76.8571 156.77C76.8505 154.572 76.7983 152.401 76.6545 150.229L76.6546 150.248ZM58.1489 162.854V150.778L67.0458 156.81L58.1489 162.854Z" fill="#4245DC"/>
<path d="M308.43 253.853L0.570303 254C0.419335 254 0.274695 253.939 0.168099 253.832C0.0615031 253.725 0.00165462 253.58 0.00165462 253.429C0.00165462 253.278 0.0615031 253.133 0.168099 253.026C0.274695 252.919 0.419335 252.858 0.570303 252.858L308.43 252.71C308.581 252.711 308.725 252.771 308.832 252.878C308.939 252.985 308.998 253.13 308.998 253.282C308.998 253.433 308.939 253.578 308.832 253.685C308.725 253.792 308.581 253.852 308.43 253.853Z" fill="#CACACA"/>
</g>
<defs>
<clipPath id="clip0_63_275">
<rect width="309" height="254" fill="white"/>
</clipPath>
</defs>
</svg>
