<svg width="609" height="692" viewBox="0 0 609 692" fill="none" xmlns="http://www.w3.org/2000/svg">
<g clip-path="url(#clip0_22_95)">
<path d="M235.906 423.81C239.396 430.565 238.74 437.841 234.441 440.062C230.143 442.282 223.83 438.607 220.341 431.852C218.814 428.895 218.081 425.838 218.1 423.149L203.674 394.342L217.336 387.86L230.107 416.946C232.311 418.487 234.379 420.854 235.906 423.81Z" fill="#FFB6B6"/>
<path d="M128.554 683.738L140.854 683.736L146.705 636.292L128.552 636.293L128.554 683.738Z" fill="#FFB6B6"/>
<path d="M170.694 683.458C171.077 684.103 171.279 686.185 171.279 686.935C171.279 689.241 169.41 691.11 167.104 691.11H129.014C127.441 691.11 126.166 689.835 126.166 688.262V686.676C126.166 686.676 124.282 681.91 128.161 676.035C128.161 676.035 132.983 680.635 140.188 673.43L142.312 669.581L157.692 680.829L166.216 681.878C168.081 682.108 169.735 681.843 170.694 683.458Z" fill="#2F2E41"/>
<path d="M70.8513 683.738L83.1509 683.736L89.0019 636.292L70.8488 636.293L70.8513 683.738Z" fill="#FFB6B6"/>
<path d="M112.991 683.458C113.374 684.103 113.576 686.185 113.576 686.935C113.576 689.241 111.707 691.11 109.402 691.11H71.3114C69.7386 691.11 68.4635 689.835 68.4635 688.262V686.676C68.4635 686.676 66.5792 681.91 70.4587 676.035C70.4587 676.035 75.2803 680.635 82.4851 673.43L84.6097 669.581L99.989 680.829L108.513 681.878C110.378 682.108 112.032 681.843 112.991 683.458Z" fill="#2F2E41"/>
<path d="M53.4415 403.805L48.26 435.472L64.3802 537.956L68.4103 661.744H90.1744L101.226 544.866L100.075 467.714L125.983 662.896H148.599L150.739 418.199L53.4415 403.805Z" fill="#2F2E41"/>
<path d="M80.5005 239.714H121.245L156.496 260.441C151.009 259.046 146.771 309.949 146.627 354.927C146.617 357.915 143.656 361.352 143.683 364.271C143.707 366.786 146.714 368.795 146.767 371.236C146.816 373.516 146.877 375.759 146.952 377.955C147.014 379.778 143.603 382.194 143.683 383.948C143.786 386.189 147.386 387.745 147.52 389.854C148.342 402.82 149.758 413.092 151.89 418.199C151.89 418.199 60.9259 443.532 54.0172 404.38C54.0172 404.38 54.4117 390.308 54.3564 370.875C54.3515 369.151 52.8832 367.587 52.8706 365.784C52.8612 364.444 54.3094 362.882 54.2953 361.504C54.2836 360.372 52.8858 359.371 52.8706 358.216C52.8615 357.528 54.2363 356.693 54.2259 355.997C53.6735 319.044 51.1925 272.474 42.5028 260.441L80.5005 239.714V239.714Z" fill="#F9861C"/>
<path d="M120.801 239.714C120.801 239.714 147.203 249.309 155.581 256.953C160.032 261.015 189.888 337.593 189.888 337.593L231.356 409.815L209.801 418.003L165.707 351.411L146.133 307.653L120.801 239.714Z" fill="#F9861C"/>
<path d="M66.0385 426.543C69.8893 433.099 69.6294 440.4 65.458 442.85C61.2867 445.301 54.7835 441.973 50.9327 435.418C49.2471 432.548 48.3493 429.536 48.2223 426.85L32.2538 398.868L45.5437 391.654L59.8749 420.004C62.1589 421.423 64.3529 423.674 66.0385 426.543Z" fill="#FFB6B6"/>
<path d="M74.7432 275.411L63.2288 248.926C63.2288 248.926 36.1698 257.562 36.1698 270.229C36.1698 270.229 20.0496 366.956 22.3525 391.138L37.3213 417.623L58.623 400.926L45.3814 370.411L74.7432 275.411Z" fill="#F9861C"/>
<path d="M51.0626 447.476L64.6447 420.502L80.5004 442.381L66.2303 456.199L51.0626 447.476Z" fill="#2F2E41"/>
<path d="M100.489 232.105C115.043 232.105 126.841 220.306 126.841 205.752C126.841 191.197 115.043 179.398 100.489 179.398C85.9353 179.398 74.1372 191.197 74.1372 205.752C74.1372 220.306 85.9353 232.105 100.489 232.105Z" fill="#FFB6B6"/>
<path d="M121.038 176.313C116.458 174.846 114.291 169.399 110.103 167.037C105.47 164.426 99.9283 162.796 94.8199 164.273C91.6855 165.18 88.9548 167.184 85.8182 168.083C85.2699 168.24 84.6931 168.348 84.1074 168.404C80.7342 168.725 77.8382 170.748 76.1524 173.688L76.1084 173.764C75.1188 175.458 73.712 176.86 72.4635 178.373C67.9076 183.894 65.4418 191.07 65.4926 198.228C65.5471 205.923 68.5076 213.562 73.6522 219.284L74.9664 218.678C78.1423 221.421 81.3182 224.165 84.4942 226.908C82.7658 220.671 81.0213 214.216 81.9363 207.809C82.8513 201.402 87.1596 195.01 93.5118 193.773C95.9148 193.305 98.4492 193.588 100.782 192.845C103.115 192.102 105.263 189.704 104.463 187.39C105.907 191.209 111.295 190.984 115.003 192.692C123.303 196.516 120.264 190.607 127.469 196.228C129.902 182.74 139.224 182.138 121.038 176.313L121.038 176.313Z" fill="#2F2E41"/>
<path d="M0.5 690.199C0.5 691.198 1.30222 692 2.30121 692H612.699C613.698 692 614.5 691.198 614.5 690.199C614.5 689.2 613.698 688.398 612.699 688.398H2.30121C1.30222 688.398 0.5 689.2 0.5 690.199Z" fill="#CCCCCC"/>
<path d="M532.847 692H265.82C233.261 692 206.771 665.509 206.771 632.947V59.0521C206.771 26.4908 233.261 0 265.82 0H532.847C565.405 0 591.895 26.4908 591.895 59.0521V632.947C591.895 665.509 565.405 692 532.847 692Z" fill="#3F3D56"/>
<path d="M591.895 211.098C590.517 211.098 589.397 212.218 589.397 213.596V293.538C589.397 294.916 590.517 296.036 591.895 296.036C593.273 296.036 594.393 294.916 594.393 293.538V213.596C594.393 212.218 593.273 211.098 591.895 211.098Z" fill="#3F3D56"/>
<path d="M586.275 59.0525V632.937C586.275 661.279 564.217 684.463 536.326 686.261H536.314C535.902 686.286 535.49 686.311 535.065 686.324C534.328 686.361 533.591 686.374 532.842 686.374C532.842 686.374 530.094 686.174 525.073 685.799C520.002 685.424 512.62 684.862 503.415 684.125C500.654 683.913 497.744 683.676 494.672 683.426C488.551 682.926 481.832 682.377 474.625 681.752C471.752 681.515 468.779 681.253 465.744 680.99C450.232 679.654 432.858 678.092 414.535 676.319C411.437 676.031 408.314 675.731 405.167 675.419C404.343 675.332 403.506 675.257 402.669 675.169C389.604 673.883 212.393 639.633 212.393 632.937V59.0525C212.393 29.5364 236.311 5.61621 265.826 5.61621H297.726C302.822 5.61621 306.918 9.58833 307.355 14.6722C307.393 15.0094 307.43 15.3466 307.493 15.6839C308.417 20.7928 313.101 24.3527 318.297 24.3527H480.37C485.566 24.3527 490.25 20.7928 491.174 15.6839C491.237 15.3466 491.274 15.0094 491.312 14.6722C491.749 9.58833 495.846 5.61621 500.942 5.61621H532.842C562.356 5.61621 586.275 29.5364 586.275 59.0525Z" fill="white"/>
<path d="M205.523 151.141C204.145 151.141 203.025 152.261 203.025 153.639V173.625C203.025 175.002 204.145 176.123 205.523 176.123C206.9 176.123 208.021 175.002 208.021 173.625V153.639C208.021 152.261 206.9 151.141 205.523 151.141Z" fill="#3F3D56"/>
<path d="M205.523 211.098C204.145 211.098 203.025 212.218 203.025 213.596V252.318C203.025 253.695 204.145 254.816 205.523 254.816C206.9 254.816 208.021 253.695 208.021 252.318V213.596C208.021 212.218 206.9 211.098 205.523 211.098Z" fill="#3F3D56"/>
<path d="M205.523 266.058C204.145 266.058 203.025 267.178 203.025 268.556V307.278C203.025 308.656 204.145 309.776 205.523 309.776C206.9 309.776 208.021 308.656 208.021 307.278V268.556C208.021 267.178 206.9 266.058 205.523 266.058Z" fill="#3F3D56"/>
<path d="M296.856 14.3647H249.083C248.824 14.3647 248.614 14.575 248.614 14.8343V20.1407C248.614 20.4 248.824 20.6102 249.083 20.6102H296.856C297.115 20.6102 297.325 20.4 297.325 20.1407V14.8343C297.325 14.575 297.115 14.3647 296.856 14.3647Z" fill="#E6E6E6"/>
<path d="M508.835 20.6103C511.594 20.6103 513.831 18.3734 513.831 15.6139C513.831 12.8545 511.594 10.6176 508.835 10.6176C506.076 10.6176 503.839 12.8545 503.839 15.6139C503.839 18.3734 506.076 20.6103 508.835 20.6103Z" fill="#E6E6E6"/>
<path d="M522.574 20.6103C525.334 20.6103 527.57 18.3734 527.57 15.6139C527.57 12.8545 525.334 10.6176 522.574 10.6176C519.815 10.6176 517.578 12.8545 517.578 15.6139C517.578 18.3734 519.815 20.6103 522.574 20.6103Z" fill="#E6E6E6"/>
<path d="M536.314 20.6103C539.073 20.6103 541.31 18.3734 541.31 15.6139C541.31 12.8545 539.073 10.6176 536.314 10.6176C533.554 10.6176 531.318 12.8545 531.318 15.6139C531.318 18.3734 533.554 20.6103 536.314 20.6103Z" fill="#E6E6E6"/>
<path d="M505.282 144.036H293.385C290.047 144.036 287.331 141.32 287.331 137.982C287.331 134.643 290.047 131.927 293.385 131.927H505.282C508.62 131.927 511.336 134.643 511.336 137.982C511.336 141.32 508.62 144.036 505.282 144.036Z" fill="#E6E6E6"/>
<path d="M540.911 623.103H462.207C458.868 623.103 456.153 620.387 456.153 617.049C456.153 613.71 458.868 610.994 462.207 610.994H540.911C544.249 610.994 546.965 613.71 546.965 617.049C546.965 620.387 544.249 623.103 540.911 623.103Z" fill="#E6E6E6"/>
<path d="M330.528 623.103H251.824C248.486 623.103 245.77 620.387 245.77 617.049C245.77 613.71 248.486 610.994 251.824 610.994H330.528C333.866 610.994 336.582 613.71 336.582 617.049C336.582 620.387 333.866 623.103 330.528 623.103Z" fill="#E6E6E6"/>
<path d="M546.966 160.305H251.702V161.819H546.966V160.305Z" fill="#3F3D56"/>
<path d="M505.282 236.368H293.385C290.047 236.368 287.331 233.652 287.331 230.314C287.331 226.975 290.047 224.259 293.385 224.259H505.282C508.62 224.259 511.336 226.975 511.336 230.314C511.336 233.652 508.62 236.368 505.282 236.368Z" fill="#E6E6E6"/>
<path d="M546.966 252.637H251.702V254.151H546.966V252.637Z" fill="#3F3D56"/>
<path d="M505.282 328.7H293.385C290.047 328.7 287.331 325.984 287.331 322.646C287.331 319.307 290.047 316.591 293.385 316.591H505.282C508.62 316.591 511.336 319.307 511.336 322.646C511.336 325.984 508.62 328.7 505.282 328.7Z" fill="#E6E6E6"/>
<path d="M546.966 344.969H251.702V346.483H546.966V344.969Z" fill="#3F3D56"/>
<path d="M546.966 423.678H251.702V425.192H546.966V423.678Z" fill="#3F3D56"/>
<path d="M546.966 502.388H251.702V503.901H546.966V502.388Z" fill="#3F3D56"/>
<path d="M401.411 557.755C449.894 557.755 489.197 518.449 489.197 469.963C489.197 421.478 449.894 382.172 401.411 382.172C352.929 382.172 313.626 421.478 313.626 469.963C313.626 518.449 352.929 557.755 401.411 557.755Z" fill="#6C63FF"/>
</g>
<defs>
<clipPath id="clip0_22_95">
<rect width="614" height="692" fill="white" transform="translate(0.5)"/>
</clipPath>
</defs>
</svg>
